<svg width="18" height="18" viewBox="0 0 18 18" fill="none" xmlns="http://www.w3.org/2000/svg">
<g opacity="0.8">
<path d="M13.1877 13.0621C11.6316 15.2775 8.17417 15.4031 5.37961 13.4401C2.59104 11.4812 1.65074 8.23955 3.2102 6.01952C4.77604 3.79043 8.35681 3.38068 11.1344 5.33181C13.9121 7.283 14.7535 10.8331 13.1877 13.0621Z" stroke="url(#paint0_linear_1_1085)" stroke-width="0.393201"/>
<path d="M14.0576 12.2331C12.2459 15.2712 8.96355 15.7802 5.49395 13.62C2.15076 11.3168 1.54435 7.77644 3.17699 5.24245C4.80963 2.70846 8.75624 2.06988 11.6784 4.12254C14.6005 6.1752 15.7409 9.83675 14.0576 12.2331Z" fill="url(#paint1_linear_1_1085)"/>
<path d="M14.0492 11.9267C13.2695 13.0365 12.0068 13.6091 10.5698 13.6528C9.13129 13.6965 7.52724 13.2081 6.09815 12.2042C3.22724 10.1876 2.2318 6.90196 3.78882 4.68542C5.35206 2.46001 8.99416 2.08784 11.854 4.09676C14.714 6.10575 15.6124 9.70132 14.0492 11.9267Z" stroke="url(#paint2_linear_1_1085)" stroke-width="0.393201"/>
<path d="M13.9141 11.3821C12.5799 13.2813 9.3279 13.5677 6.55319 11.6186C3.77849 9.66951 2.94482 6.51313 4.27897 4.61386C5.61312 2.71459 8.86515 2.42823 11.6399 4.37733C14.4146 6.32644 15.2482 9.48281 13.9141 11.3821Z" fill="#FFD93B" stroke="url(#paint3_linear_1_1085)" stroke-width="1.09223"/>
<path d="M13.1444 10.8432C12.5919 11.6298 11.6404 12.035 10.5362 12.0433C9.43212 12.0517 8.18298 11.6624 7.05355 10.8691C5.92413 10.0757 5.13424 9.03265 4.76764 7.99121C4.40097 6.94957 4.45943 5.9171 5.01193 5.13057C5.56444 4.34403 6.51587 3.93883 7.62013 3.93046C8.72418 3.92208 9.97333 4.31134 11.1028 5.10471C12.2322 5.89808 13.0221 6.94114 13.3887 7.98258C13.7553 9.02422 13.6969 10.0567 13.1444 10.8432Z" stroke="url(#paint4_linear_1_1085)" stroke-width="0.174756"/>
<path d="M11.8406 9.41272L11.8879 9.54582C11.9403 9.70212 11.9947 9.85769 12.0512 10.0125C12.0557 10.025 12.0599 10.0384 12.0638 10.0528C12.0703 10.0765 12.059 10.1019 12.0316 10.0993C11.3963 10.0391 10.7651 9.97921 10.1381 9.91961C10.1013 9.9161 10.0677 9.88835 10.0556 9.8542C9.94826 9.5534 9.83427 9.23253 9.7136 8.89159C9.70369 8.86373 9.71403 8.8444 9.74461 8.83361C9.98749 8.74785 10.1686 8.55821 10.2192 8.31126C10.2927 7.9529 10.1205 7.58767 9.89922 7.31304C9.68011 7.04119 9.39312 6.8035 9.05896 6.63189C8.7435 6.47001 8.32963 6.29383 7.97846 6.31117C7.62704 6.32849 7.28887 6.42278 7.1694 6.76465C7.08979 6.99255 7.13694 7.25096 7.2351 7.46578C7.4157 7.86096 7.75087 8.18678 8.12612 8.41208C8.2154 8.46575 8.30435 8.51609 8.39892 8.55632C8.43738 8.57251 8.48283 8.5942 8.49792 8.63664C8.61145 8.95587 8.72457 9.27385 8.8373 9.59059C8.85307 9.63496 8.83755 9.6549 8.79072 9.65041C8.17247 9.59154 7.55016 9.53256 6.92379 9.47346C6.87682 9.46903 6.84506 9.44275 6.82852 9.39464C6.78601 9.27047 6.72709 9.10781 6.65179 8.90665L6.60612 8.77824L6.60577 8.75514C6.60569 8.75123 6.60704 8.74788 6.60982 8.74509C6.62012 8.73488 6.63281 8.73048 6.64791 8.73191C6.8769 8.75388 7.11497 8.77638 7.36212 8.79943C7.36304 8.79952 7.36397 8.79937 7.36481 8.79901C7.36566 8.79864 7.3664 8.79807 7.36696 8.79734C7.36752 8.79661 7.36789 8.79575 7.36803 8.79484C7.36818 8.79393 7.36808 8.793 7.36777 8.79214C7.33862 8.71156 7.30713 8.62312 7.2733 8.52684C7.26838 8.51278 7.26018 8.50057 7.24872 8.49023C7.02598 8.29009 6.82911 8.07178 6.66108 7.82084C6.43639 7.48559 6.26028 7.05883 6.28707 6.64852C6.31175 6.27088 6.48742 5.98092 6.81407 5.77864C7.19127 5.54519 7.71039 5.60713 8.14041 5.67051C8.35151 5.70162 8.54982 5.74965 8.73534 5.81461C9.31802 6.01886 9.84831 6.39137 10.2796 6.81447C10.4587 6.99006 10.6191 7.18815 10.751 7.39985C11.0378 7.86099 11.219 8.47788 10.9414 8.98392C10.9374 8.99116 10.9368 8.99867 10.9395 9.00645L11.0376 9.28189C11.0385 9.2844 11.0401 9.2866 11.0422 9.28824C11.0444 9.28988 11.0469 9.29088 11.0496 9.29114C11.2855 9.31329 11.5233 9.33587 11.7632 9.35889C11.7959 9.36202 11.8217 9.37996 11.8406 9.41272Z" fill="url(#paint5_linear_1_1085)" fill-opacity="0.5"/>
<path d="M11.8406 9.41272L11.8879 9.54582C11.9403 9.70212 11.9947 9.85769 12.0512 10.0125C12.0557 10.025 12.0599 10.0384 12.0638 10.0528C12.0703 10.0765 12.059 10.1019 12.0316 10.0993C11.3963 10.0391 10.7651 9.97921 10.1381 9.91961C10.1013 9.9161 10.0677 9.88835 10.0556 9.8542C9.94826 9.5534 9.83427 9.23253 9.7136 8.89159C9.70369 8.86373 9.71403 8.8444 9.74461 8.83361C9.98749 8.74785 10.1686 8.55821 10.2192 8.31126C10.2927 7.9529 10.1205 7.58767 9.89922 7.31304C9.68011 7.04119 9.39312 6.8035 9.05896 6.63189C8.7435 6.47001 8.32963 6.29383 7.97846 6.31117C7.62704 6.32849 7.28887 6.42278 7.1694 6.76465C7.08979 6.99255 7.13694 7.25096 7.2351 7.46578C7.4157 7.86096 7.75087 8.18678 8.12612 8.41208C8.2154 8.46575 8.30435 8.51609 8.39892 8.55632C8.43738 8.57251 8.48283 8.5942 8.49792 8.63664C8.61145 8.95587 8.72457 9.27385 8.8373 9.59059C8.85307 9.63496 8.83755 9.6549 8.79072 9.65041C8.17247 9.59154 7.55016 9.53256 6.92379 9.47346C6.87682 9.46903 6.84506 9.44275 6.82852 9.39464C6.78601 9.27047 6.72709 9.10781 6.65179 8.90665L6.60612 8.77824L6.60577 8.75514C6.60569 8.75123 6.60704 8.74788 6.60982 8.74509C6.62012 8.73488 6.63281 8.73048 6.64791 8.73191C6.8769 8.75388 7.11497 8.77638 7.36212 8.79943C7.36304 8.79952 7.36397 8.79937 7.36481 8.79901C7.36566 8.79864 7.3664 8.79807 7.36696 8.79734C7.36752 8.79661 7.36789 8.79575 7.36803 8.79484C7.36818 8.79393 7.36808 8.793 7.36777 8.79214C7.33862 8.71156 7.30713 8.62312 7.2733 8.52684C7.26838 8.51278 7.26018 8.50057 7.24872 8.49023C7.02598 8.29009 6.82911 8.07178 6.66108 7.82084C6.43639 7.48559 6.26028 7.05883 6.28707 6.64852C6.31175 6.27088 6.48742 5.98092 6.81407 5.77864C7.19127 5.54519 7.71039 5.60713 8.14041 5.67051C8.35151 5.70162 8.54982 5.74965 8.73534 5.81461C9.31802 6.01886 9.84831 6.39137 10.2796 6.81447C10.4587 6.99006 10.6191 7.18815 10.751 7.39985C11.0378 7.86099 11.219 8.47788 10.9414 8.98392C10.9374 8.99116 10.9368 8.99867 10.9395 9.00645L11.0376 9.28189C11.0385 9.2844 11.0401 9.2866 11.0422 9.28824C11.0444 9.28988 11.0469 9.29088 11.0496 9.29114C11.2855 9.31329 11.5233 9.33587 11.7632 9.35889C11.7959 9.36202 11.8217 9.37996 11.8406 9.41272Z" fill="black" fill-opacity="0.1"/>
<g filter="url(#filter0_d_1_1085)">
<path d="M11.9055 9.36303L11.9529 9.49613C12.0053 9.65243 12.0597 9.808 12.1161 9.96285C12.1206 9.97526 12.1248 9.98868 12.1287 10.0031C12.1352 10.0269 12.124 10.0522 12.0966 10.0496C11.4612 9.9894 10.83 9.92952 10.203 9.86992C10.1662 9.86641 10.1326 9.83866 10.1205 9.80451C10.0132 9.50371 9.89922 9.18284 9.77854 8.8419C9.76863 8.81404 9.77897 8.79471 9.80955 8.78392C10.0524 8.69816 10.2335 8.50852 10.2841 8.26157C10.3577 7.90321 10.1855 7.53798 9.96416 7.26335C9.74505 6.9915 9.45807 6.75381 9.1239 6.5822C8.80844 6.42032 8.39457 6.24414 8.0434 6.26148C7.69198 6.2788 7.35381 6.37309 7.23434 6.71496C7.15473 6.94286 7.20188 7.20127 7.30004 7.41609C7.48064 7.81126 7.81581 8.13709 8.19106 8.36239C8.28034 8.41606 8.36929 8.4664 8.46386 8.50663C8.50232 8.52282 8.54777 8.54451 8.56286 8.58695C8.67639 8.90618 8.78952 9.22416 8.90224 9.5409C8.91802 9.58526 8.90249 9.60521 8.85566 9.60072C8.23741 9.54185 7.6151 9.48287 6.98873 9.42377C6.94176 9.41934 6.91 9.39306 6.89346 9.34495C6.85095 9.22078 6.79203 9.05812 6.71673 8.85696L6.67106 8.72855L6.67071 8.70544C6.67063 8.70154 6.67198 8.69819 6.67476 8.6954C6.68506 8.68518 6.69775 8.68079 6.71285 8.68222C6.94184 8.70419 7.17991 8.72669 7.42706 8.74974C7.42798 8.74983 7.42891 8.74968 7.42975 8.74932C7.4306 8.74895 7.43134 8.74838 7.4319 8.74765C7.43247 8.74692 7.43284 8.74606 7.43298 8.74515C7.43312 8.74424 7.43302 8.74331 7.43271 8.74245C7.40356 8.66187 7.37207 8.57343 7.33824 8.47715C7.33332 8.46308 7.32513 8.45088 7.31366 8.44054C7.09092 8.2404 6.89405 8.02209 6.72602 7.77115C6.50133 7.4359 6.32522 7.00914 6.35201 6.59883C6.37669 6.22119 6.55236 5.93123 6.87902 5.72895C7.25621 5.4955 7.77533 5.55744 8.20535 5.62082C8.41645 5.65193 8.61476 5.69996 8.80028 5.76492C9.38296 5.96917 9.91325 6.34168 10.3445 6.76478C10.5236 6.94037 10.6841 7.13846 10.8159 7.35016C11.1027 7.8113 11.284 8.42819 11.0063 8.93423C11.0023 8.94147 11.0017 8.94898 11.0045 8.95676L11.1026 9.2322C11.1035 9.23471 11.1051 9.23691 11.1072 9.23855C11.1093 9.24019 11.1119 9.24119 11.1146 9.24145C11.3504 9.26359 11.5883 9.28618 11.8281 9.30919C11.8608 9.31233 11.8866 9.33027 11.9055 9.36303Z" fill="url(#paint6_linear_1_1085)" fill-opacity="0.8" shape-rendering="crispEdges"/>
</g>
<g filter="url(#filter1_f_1_1085)">
<path d="M11.4349 13.7522L10.481 14.936C11.9537 14.6929 12.8885 13.7913 13.1272 13.4814C13.3734 13.2164 13.6942 12.7716 14.0379 12.2594C15.1752 10.8226 15.798 8.40606 13.771 5.68267C11.2651 2.47642 7.90097 2.28757 6.55456 2.60728L11.4702 13.3921L11.4349 13.7522Z" fill="url(#paint7_linear_1_1085)" fill-opacity="0.3"/>
</g>
</g>
<defs>
<filter id="filter0_d_1_1085" x="6.26745" y="5.56288" width="5.94497" height="4.65073" filterUnits="userSpaceOnUse" color-interpolation-filters="sRGB">
<feFlood flood-opacity="0" result="BackgroundImageFix"/>
<feColorMatrix in="SourceAlpha" type="matrix" values="0 0 0 0 0 0 0 0 0 0 0 0 0 0 0 0 0 0 127 0" result="hardAlpha"/>
<feOffset dy="0.08192"/>
<feGaussianBlur stdDeviation="0.04096"/>
<feComposite in2="hardAlpha" operator="out"/>
<feColorMatrix type="matrix" values="0 0 0 0 0 0 0 0 0 0 0 0 0 0 0 0 0 0 0.1 0"/>
<feBlend mode="normal" in2="BackgroundImageFix" result="effect1_dropShadow_1_1085"/>
<feBlend mode="normal" in="SourceGraphic" in2="effect1_dropShadow_1_1085" result="shape"/>
</filter>
<filter id="filter1_f_1_1085" x="6.37981" y="2.32161" width="8.88967" height="12.7892" filterUnits="userSpaceOnUse" color-interpolation-filters="sRGB">
<feFlood flood-opacity="0" result="BackgroundImageFix"/>
<feBlend mode="normal" in="SourceGraphic" in2="BackgroundImageFix" result="shape"/>
<feGaussianBlur stdDeviation="0.0873781" result="effect1_foregroundBlur_1_1085"/>
</filter>
<linearGradient id="paint0_linear_1_1085" x1="13.6664" y1="12.7286" x2="1.93002" y2="7.83778" gradientUnits="userSpaceOnUse">
<stop stop-color="#FDF8CE"/>
<stop offset="0.0550575" stop-color="#F2E158"/>
<stop offset="0.170676" stop-color="#FCF5AF"/>
<stop offset="0.309086" stop-color="#ECD42F"/>
<stop offset="0.491314" stop-color="#E9B00C"/>
<stop offset="0.704021" stop-color="#ECB600"/>
<stop offset="0.78935" stop-color="#E8CF29"/>
<stop offset="0.843399" stop-color="#EBD431"/>
<stop offset="0.909367" stop-color="#E2C317"/>
<stop offset="1" stop-color="#E9D14F"/>
</linearGradient>
<linearGradient id="paint1_linear_1_1085" x1="13.5604" y1="12.6116" x2="1.59537" y2="6.85639" gradientUnits="userSpaceOnUse">
<stop stop-color="#EEBB5C"/>
<stop offset="0.0550575" stop-color="#FDEE48"/>
<stop offset="0.170676" stop-color="#E8BB06"/>
<stop offset="0.309086" stop-color="#D57B01"/>
<stop offset="0.491314" stop-color="#C86101"/>
<stop offset="0.660555" stop-color="#D88C2D"/>
<stop offset="0.771761" stop-color="#E8BE29"/>
<stop offset="0.815114" stop-color="#E8BE29"/>
<stop offset="0.881945" stop-color="#E8AE0E"/>
<stop offset="0.930202" stop-color="#D98317"/>
<stop offset="1" stop-color="#EBAE4E"/>
</linearGradient>
<linearGradient id="paint2_linear_1_1085" x1="14.5279" y1="11.5932" x2="2.45657" y2="6.64436" gradientUnits="userSpaceOnUse">
<stop stop-color="#FDF8CE"/>
<stop offset="0.0550575" stop-color="#F2E158"/>
<stop offset="0.170676" stop-color="#FCF5AF"/>
<stop offset="0.309086" stop-color="#ECD42F"/>
<stop offset="0.491314" stop-color="#E9B00C"/>
<stop offset="0.704021" stop-color="#ECB600"/>
<stop offset="0.78935" stop-color="#E8CF29"/>
<stop offset="0.843399" stop-color="#EBD431"/>
<stop offset="0.909367" stop-color="#E2C317"/>
<stop offset="1" stop-color="#E9D14F"/>
</linearGradient>
<linearGradient id="paint3_linear_1_1085" x1="15.1762" y1="8.46796" x2="3.21912" y2="8.16016" gradientUnits="userSpaceOnUse">
<stop stop-color="#FFDC5E"/>
<stop offset="0.417119" stop-color="#FFED97"/>
<stop offset="1" stop-color="#FFF27B"/>
</linearGradient>
<linearGradient id="paint4_linear_1_1085" x1="11.3842" y1="5.01198" x2="7.20682" y2="11.2247" gradientUnits="userSpaceOnUse">
<stop stop-color="#E4991A"/>
<stop offset="0.474971" stop-color="#EAAA2E" stop-opacity="0"/>
<stop offset="1" stop-color="#FFF27B" stop-opacity="0"/>
</linearGradient>
<linearGradient id="paint5_linear_1_1085" x1="11.1009" y1="7.33269" x2="6.65439" y2="8.91398" gradientUnits="userSpaceOnUse">
<stop stop-color="#E1A737"/>
<stop offset="0.494792" stop-color="#EEA230"/>
<stop offset="1" stop-color="#DB9224"/>
</linearGradient>
<linearGradient id="paint6_linear_1_1085" x1="11.1658" y1="7.283" x2="6.71933" y2="8.86429" gradientUnits="userSpaceOnUse">
<stop stop-color="#E1A737"/>
<stop offset="0.494792" stop-color="#EEA230"/>
<stop offset="1" stop-color="#DB9224"/>
</linearGradient>
<linearGradient id="paint7_linear_1_1085" x1="8.43591" y1="6.50621" x2="14.1917" y2="4.3384" gradientUnits="userSpaceOnUse">
<stop stop-color="white"/>
<stop offset="0.105858" stop-color="white"/>
<stop offset="0.21696" stop-color="white" stop-opacity="0.961194"/>
<stop offset="1" stop-color="white" stop-opacity="0"/>
</linearGradient>
</defs>
</svg>
