<svg width="341" height="116" viewBox="0 0 341 116" fill="none" xmlns="http://www.w3.org/2000/svg">
<mask id="path-1-outside-1_1_1649" maskUnits="userSpaceOnUse" x="5.5" y="29" width="393" height="63" fill="black">
<rect fill="white" x="5.5" y="29" width="393" height="63"/>
<path d="M6.45 91V29.8H30.7175C34.8542 29.8 38.24 30.6358 40.875 32.3075C43.5383 33.9508 45.5075 36.0617 46.7825 38.64C48.0858 41.2183 48.7375 43.8817 48.7375 46.63C48.7375 50.0017 47.93 52.8633 46.315 55.215C44.7283 57.5667 42.5608 59.1533 39.8125 59.975V57.85C43.6658 58.7283 46.5842 60.5558 48.5675 63.3325C50.5792 66.1092 51.585 69.2683 51.585 72.81C51.585 76.4367 50.8908 79.61 49.5025 82.33C48.1142 85.05 46.0458 87.175 43.2975 88.705C40.5775 90.235 37.2058 91 33.1825 91H6.45ZM16.82 81.3525H31.9075C33.6925 81.3525 35.2933 80.9983 36.71 80.29C38.1267 79.5533 39.2317 78.5333 40.025 77.23C40.8467 75.8983 41.2575 74.3258 41.2575 72.5125C41.2575 70.8692 40.9033 69.3958 40.195 68.0925C39.4867 66.7892 38.4525 65.755 37.0925 64.99C35.7325 64.1967 34.1033 63.8 32.205 63.8H16.82V81.3525ZM16.82 54.2375H30.59C32.0633 54.2375 33.3808 53.9542 34.5425 53.3875C35.7042 52.8208 36.625 51.985 37.305 50.88C37.985 49.775 38.325 48.415 38.325 46.8C38.325 44.675 37.645 42.9042 36.285 41.4875C34.925 40.0708 33.0267 39.3625 30.59 39.3625H16.82V54.2375ZM61.773 91V29.8H101.298V39.405H72.0155V54.4925H96.198V64.0975H72.0155V81.395H101.298V91H61.773ZM131.911 91V29.8H156.179C160.315 29.8 163.701 30.6358 166.336 32.3075C169 33.9508 170.969 36.0617 172.244 38.64C173.547 41.2183 174.199 43.8817 174.199 46.63C174.199 50.0017 173.391 52.8633 171.776 55.215C170.19 57.5667 168.022 59.1533 165.274 59.975V57.85C169.127 58.7283 172.045 60.5558 174.029 63.3325C176.04 66.1092 177.046 69.2683 177.046 72.81C177.046 76.4367 176.352 79.61 174.964 82.33C173.575 85.05 171.507 87.175 168.759 88.705C166.039 90.235 162.667 91 158.644 91H131.911ZM142.281 81.3525H157.369C159.154 81.3525 160.755 80.9983 162.171 80.29C163.588 79.5533 164.693 78.5333 165.486 77.23C166.308 75.8983 166.719 74.3258 166.719 72.5125C166.719 70.8692 166.365 69.3958 165.656 68.0925C164.948 66.7892 163.914 65.755 162.554 64.99C161.194 64.1967 159.565 63.8 157.666 63.8H142.281V81.3525ZM142.281 54.2375H156.051C157.525 54.2375 158.842 53.9542 160.004 53.3875C161.165 52.8208 162.086 51.985 162.766 50.88C163.446 49.775 163.786 48.415 163.786 46.8C163.786 44.675 163.106 42.9042 161.746 41.4875C160.386 40.0708 158.488 39.3625 156.051 39.3625H142.281V54.2375ZM187.234 91V29.8H226.759V39.405H197.477V54.4925H221.659V64.0975H197.477V81.395H226.759V91H187.234ZM253.361 91V39.405H233.556V29.8H283.409V39.405H263.604V91H253.361ZM311.672 91V39.405H291.867V29.8H341.72V39.405H321.915V91H311.672ZM344.305 91L363.6 29.8H378.603L397.898 91H387.358L369.848 36.09H372.143L354.845 91H344.305ZM355.058 77.74V68.1775H387.188V77.74H355.058Z"/>
</mask>
<path d="M6.45 91V29.8H30.7175C34.8542 29.8 38.24 30.6358 40.875 32.3075C43.5383 33.9508 45.5075 36.0617 46.7825 38.64C48.0858 41.2183 48.7375 43.8817 48.7375 46.63C48.7375 50.0017 47.93 52.8633 46.315 55.215C44.7283 57.5667 42.5608 59.1533 39.8125 59.975V57.85C43.6658 58.7283 46.5842 60.5558 48.5675 63.3325C50.5792 66.1092 51.585 69.2683 51.585 72.81C51.585 76.4367 50.8908 79.61 49.5025 82.33C48.1142 85.05 46.0458 87.175 43.2975 88.705C40.5775 90.235 37.2058 91 33.1825 91H6.45ZM16.82 81.3525H31.9075C33.6925 81.3525 35.2933 80.9983 36.71 80.29C38.1267 79.5533 39.2317 78.5333 40.025 77.23C40.8467 75.8983 41.2575 74.3258 41.2575 72.5125C41.2575 70.8692 40.9033 69.3958 40.195 68.0925C39.4867 66.7892 38.4525 65.755 37.0925 64.99C35.7325 64.1967 34.1033 63.8 32.205 63.8H16.82V81.3525ZM16.82 54.2375H30.59C32.0633 54.2375 33.3808 53.9542 34.5425 53.3875C35.7042 52.8208 36.625 51.985 37.305 50.88C37.985 49.775 38.325 48.415 38.325 46.8C38.325 44.675 37.645 42.9042 36.285 41.4875C34.925 40.0708 33.0267 39.3625 30.59 39.3625H16.82V54.2375ZM61.773 91V29.8H101.298V39.405H72.0155V54.4925H96.198V64.0975H72.0155V81.395H101.298V91H61.773ZM131.911 91V29.8H156.179C160.315 29.8 163.701 30.6358 166.336 32.3075C169 33.9508 170.969 36.0617 172.244 38.64C173.547 41.2183 174.199 43.8817 174.199 46.63C174.199 50.0017 173.391 52.8633 171.776 55.215C170.19 57.5667 168.022 59.1533 165.274 59.975V57.85C169.127 58.7283 172.045 60.5558 174.029 63.3325C176.04 66.1092 177.046 69.2683 177.046 72.81C177.046 76.4367 176.352 79.61 174.964 82.33C173.575 85.05 171.507 87.175 168.759 88.705C166.039 90.235 162.667 91 158.644 91H131.911ZM142.281 81.3525H157.369C159.154 81.3525 160.755 80.9983 162.171 80.29C163.588 79.5533 164.693 78.5333 165.486 77.23C166.308 75.8983 166.719 74.3258 166.719 72.5125C166.719 70.8692 166.365 69.3958 165.656 68.0925C164.948 66.7892 163.914 65.755 162.554 64.99C161.194 64.1967 159.565 63.8 157.666 63.8H142.281V81.3525ZM142.281 54.2375H156.051C157.525 54.2375 158.842 53.9542 160.004 53.3875C161.165 52.8208 162.086 51.985 162.766 50.88C163.446 49.775 163.786 48.415 163.786 46.8C163.786 44.675 163.106 42.9042 161.746 41.4875C160.386 40.0708 158.488 39.3625 156.051 39.3625H142.281V54.2375ZM187.234 91V29.8H226.759V39.405H197.477V54.4925H221.659V64.0975H197.477V81.395H226.759V91H187.234ZM253.361 91V39.405H233.556V29.8H283.409V39.405H263.604V91H253.361ZM311.672 91V39.405H291.867V29.8H341.72V39.405H321.915V91H311.672ZM344.305 91L363.6 29.8H378.603L397.898 91H387.358L369.848 36.09H372.143L354.845 91H344.305ZM355.058 77.74V68.1775H387.188V77.74H355.058Z" fill="#FFFEA1" fill-opacity="0.15"/>
<path d="M6.45 91H6.2V91.25H6.45V91ZM6.45 29.8V29.55H6.2V29.8H6.45ZM40.875 32.3075L40.7411 32.5186L40.7437 32.5203L40.875 32.3075ZM46.7825 38.64L46.5584 38.7508L46.5594 38.7528L46.7825 38.64ZM46.315 55.215L46.1089 55.0735L46.1078 55.0752L46.315 55.215ZM39.8125 59.975H39.5625V60.3107L39.8841 60.2145L39.8125 59.975ZM39.8125 57.85L39.8681 57.6063L39.5625 57.5366V57.85H39.8125ZM48.5675 63.3325L48.3641 63.4778L48.3651 63.4792L48.5675 63.3325ZM49.5025 82.33L49.2798 82.2163L49.5025 82.33ZM43.2975 88.705L43.1759 88.4866L43.1749 88.4871L43.2975 88.705ZM16.82 81.3525H16.57V81.6025H16.82V81.3525ZM36.71 80.29L36.8218 80.5136L36.8253 80.5118L36.71 80.29ZM40.025 77.23L39.8122 77.0987L39.8115 77.1L40.025 77.23ZM40.195 68.0925L39.9753 68.2119L40.195 68.0925ZM37.0925 64.99L36.9665 65.206L36.9699 65.2079L37.0925 64.99ZM16.82 63.8V63.55H16.57V63.8H16.82ZM16.82 54.2375H16.57V54.4875H16.82V54.2375ZM37.305 50.88L37.0921 50.749L37.305 50.88ZM36.285 41.4875L36.4654 41.3144V41.3144L36.285 41.4875ZM16.82 39.3625V39.1125H16.57V39.3625H16.82ZM6.7 91V29.8H6.2V91H6.7ZM6.45 30.05H30.7175V29.55H6.45V30.05ZM30.7175 30.05C34.8218 30.05 38.1572 30.8794 40.7411 32.5186L41.0089 32.0964C38.3228 30.3923 34.8865 29.55 30.7175 29.55V30.05ZM40.7437 32.5203C43.3708 34.1412 45.306 36.2182 46.5584 38.7508L47.0066 38.5292C45.709 35.9052 43.7059 33.7604 41.0063 32.0947L40.7437 32.5203ZM46.5594 38.7528C47.846 41.298 48.4875 43.9229 48.4875 46.63H48.9875C48.9875 43.8405 48.3257 41.1387 47.0056 38.5272L46.5594 38.7528ZM48.4875 46.63C48.4875 49.9605 47.6904 52.7706 46.1089 55.0735L46.5211 55.3565C48.1696 52.9561 48.9875 50.0428 48.9875 46.63H48.4875ZM46.1078 55.0752C44.5538 57.3783 42.4345 58.9302 39.7409 59.7355L39.8841 60.2145C42.6871 59.3765 44.9029 57.755 46.5222 55.3548L46.1078 55.0752ZM40.0625 59.975V57.85H39.5625V59.975H40.0625ZM39.7569 58.0937C43.5606 58.9608 46.4219 60.7587 48.3641 63.4778L48.7709 63.1872C46.7465 60.3529 43.771 58.4959 39.8681 57.6063L39.7569 58.0937ZM48.3651 63.4792C50.3447 66.2117 51.335 69.3192 51.335 72.81H51.835C51.835 69.2175 50.8136 66.0066 48.77 63.1858L48.3651 63.4792ZM51.335 72.81C51.335 76.4045 50.6471 79.5376 49.2798 82.2163L49.7252 82.4437C51.1345 79.6824 51.835 76.4688 51.835 72.81H51.335ZM49.2798 82.2163C47.9148 84.8908 45.8823 86.9799 43.1759 88.4866L43.4191 88.9234C46.2094 87.3701 48.3136 85.2092 49.7252 82.4437L49.2798 82.2163ZM43.1749 88.4871C40.5017 89.9908 37.175 90.75 33.1825 90.75V91.25C37.2367 91.25 40.6533 90.4792 43.4201 88.9229L43.1749 88.4871ZM33.1825 90.75H6.45V91.25H33.1825V90.75ZM16.82 81.6025H31.9075V81.1025H16.82V81.6025ZM31.9075 81.6025C33.7263 81.6025 35.3662 81.2414 36.8218 80.5136L36.5982 80.0664C35.2204 80.7553 33.6587 81.1025 31.9075 81.1025V81.6025ZM36.8253 80.5118C38.2805 79.7551 39.4204 78.7042 40.2386 77.36L39.8115 77.1C39.043 78.3625 37.9728 79.3516 36.5947 80.0682L36.8253 80.5118ZM40.2378 77.3613C41.0874 75.9842 41.5075 74.3647 41.5075 72.5125H41.0075C41.0075 74.287 40.6059 75.8124 39.8122 77.0987L40.2378 77.3613ZM41.5075 72.5125C41.5075 70.8321 41.145 69.3169 40.4147 67.9731L39.9753 68.2119C40.6617 69.4747 41.0075 70.9063 41.0075 72.5125H41.5075ZM40.4147 67.9731C39.6827 66.6263 38.6138 65.5589 37.2151 64.7721L36.9699 65.2079C38.2912 65.9511 39.2907 66.952 39.9753 68.2119L40.4147 67.9731ZM37.2185 64.7741C35.8131 63.9542 34.1385 63.55 32.205 63.55V64.05C34.0682 64.05 35.6519 64.4391 36.9665 65.2059L37.2185 64.7741ZM32.205 63.55H16.82V64.05H32.205V63.55ZM16.57 63.8V81.3525H17.07V63.8H16.57ZM16.82 54.4875H30.59V53.9875H16.82V54.4875ZM30.59 54.4875C32.096 54.4875 33.4518 54.1977 34.6521 53.6122L34.4329 53.1628C33.3099 53.7106 32.0307 53.9875 30.59 53.9875V54.4875ZM34.6521 53.6122C35.8566 53.0246 36.8132 52.1562 37.5179 51.011L37.0921 50.749C36.4368 51.8137 35.5518 52.617 34.4329 53.1628L34.6521 53.6122ZM37.5179 51.011C38.2275 49.858 38.575 48.45 38.575 46.8H38.075C38.075 48.38 37.7425 49.692 37.0921 50.749L37.5179 51.011ZM38.575 46.8C38.575 44.6163 37.8739 42.7816 36.4654 41.3144L36.1047 41.6606C37.4161 43.0267 38.075 44.7337 38.075 46.8H38.575ZM36.4654 41.3144C35.0473 39.8373 33.0773 39.1125 30.59 39.1125V39.6125C32.9761 39.6125 34.8027 40.3044 36.1047 41.6606L36.4654 41.3144ZM30.59 39.1125H16.82V39.6125H30.59V39.1125ZM16.57 39.3625V54.2375H17.07V39.3625H16.57ZM61.773 91H61.523V91.25H61.773V91ZM61.773 29.8V29.55H61.523V29.8H61.773ZM101.298 29.8H101.548V29.55H101.298V29.8ZM101.298 39.405V39.655H101.548V39.405H101.298ZM72.0155 39.405V39.155H71.7655V39.405H72.0155ZM72.0155 54.4925H71.7655V54.7425H72.0155V54.4925ZM96.1981 54.4925H96.4481V54.2425H96.1981V54.4925ZM96.1981 64.0975V64.3475H96.4481V64.0975H96.1981ZM72.0155 64.0975V63.8475H71.7655V64.0975H72.0155ZM72.0155 81.395H71.7655V81.645H72.0155V81.395ZM101.298 81.395H101.548V81.145H101.298V81.395ZM101.298 91V91.25H101.548V91H101.298ZM62.023 91V29.8H61.523V91H62.023ZM61.773 30.05H101.298V29.55H61.773V30.05ZM101.048 29.8V39.405H101.548V29.8H101.048ZM101.298 39.155H72.0155V39.655H101.298V39.155ZM71.7655 39.405V54.4925H72.2655V39.405H71.7655ZM72.0155 54.7425H96.1981V54.2425H72.0155V54.7425ZM95.9481 54.4925V64.0975H96.4481V54.4925H95.9481ZM96.1981 63.8475H72.0155V64.3475H96.1981V63.8475ZM71.7655 64.0975V81.395H72.2655V64.0975H71.7655ZM72.0155 81.645H101.298V81.145H72.0155V81.645ZM101.048 81.395V91H101.548V81.395H101.048ZM101.298 90.75H61.773V91.25H101.298V90.75ZM131.911 91H131.661V91.25H131.911V91ZM131.911 29.8V29.55H131.661V29.8H131.911ZM166.336 32.3075L166.202 32.5186L166.205 32.5203L166.336 32.3075ZM172.244 38.64L172.02 38.7508L172.021 38.7528L172.244 38.64ZM171.776 55.215L171.57 55.0735L171.569 55.0752L171.776 55.215ZM165.274 59.975H165.024V60.3107L165.345 60.2145L165.274 59.975ZM165.274 57.85L165.329 57.6063L165.024 57.5366V57.85H165.274ZM174.029 63.3325L173.825 63.4778L173.826 63.4792L174.029 63.3325ZM174.964 82.33L174.741 82.2163L174.964 82.33ZM168.759 88.705L168.637 88.4866L168.636 88.4871L168.759 88.705ZM142.281 81.3525H142.031V81.6025H142.281V81.3525ZM162.171 80.29L162.283 80.5136L162.287 80.5118L162.171 80.29ZM165.486 77.23L165.274 77.0987L165.273 77.1L165.486 77.23ZM165.656 68.0925L165.437 68.2119L165.656 68.0925ZM162.554 64.99L162.428 65.206L162.431 65.2079L162.554 64.99ZM142.281 63.8V63.55H142.031V63.8H142.281ZM142.281 54.2375H142.031V54.4875H142.281V54.2375ZM162.766 50.88L162.553 50.749L162.766 50.88ZM161.746 41.4875L161.927 41.3144V41.3144L161.746 41.4875ZM142.281 39.3625V39.1125H142.031V39.3625H142.281ZM132.161 91V29.8H131.661V91H132.161ZM131.911 30.05H156.179V29.55H131.911V30.05ZM156.179 30.05C160.283 30.05 163.619 30.8794 166.202 32.5186L166.47 32.0964C163.784 30.3923 160.348 29.55 156.179 29.55V30.05ZM166.205 32.5203C168.832 34.1412 170.767 36.2182 172.02 38.7508L172.468 38.5292C171.17 35.9052 169.167 33.7604 166.468 32.0947L166.205 32.5203ZM172.021 38.7528C173.307 41.298 173.949 43.9229 173.949 46.63H174.449C174.449 43.8405 173.787 41.1387 172.467 38.5272L172.021 38.7528ZM173.949 46.63C173.949 49.9605 173.152 52.7706 171.57 55.0735L171.982 55.3565C173.631 52.9561 174.449 50.0428 174.449 46.63H173.949ZM171.569 55.0752C170.015 57.3783 167.896 58.9302 165.202 59.7355L165.345 60.2145C168.148 59.3765 170.364 57.755 171.984 55.3548L171.569 55.0752ZM165.524 59.975V57.85H165.024V59.975H165.524ZM165.218 58.0937C169.022 58.9608 171.883 60.7587 173.825 63.4778L174.232 63.1872C172.208 60.3529 169.232 58.4959 165.329 57.6063L165.218 58.0937ZM173.826 63.4792C175.806 66.2117 176.796 69.3192 176.796 72.81H177.296C177.296 69.2175 176.275 66.0066 174.231 63.1858L173.826 63.4792ZM176.796 72.81C176.796 76.4045 176.108 79.5376 174.741 82.2163L175.186 82.4437C176.596 79.6824 177.296 76.4688 177.296 72.81H176.796ZM174.741 82.2163C173.376 84.8908 171.344 86.9799 168.637 88.4866L168.88 88.9234C171.671 87.3701 173.775 85.2092 175.186 82.4437L174.741 82.2163ZM168.636 88.4871C165.963 89.9908 162.636 90.75 158.644 90.75V91.25C162.698 91.25 166.115 90.4792 168.881 88.9229L168.636 88.4871ZM158.644 90.75H131.911V91.25H158.644V90.75ZM142.281 81.6025H157.369V81.1025H142.281V81.6025ZM157.369 81.6025C159.188 81.6025 160.828 81.2414 162.283 80.5136L162.06 80.0664C160.682 80.7553 159.12 81.1025 157.369 81.1025V81.6025ZM162.287 80.5118C163.742 79.7551 164.882 78.7042 165.7 77.36L165.273 77.1C164.504 78.3625 163.434 79.3516 162.056 80.0682L162.287 80.5118ZM165.699 77.3613C166.549 75.9842 166.969 74.3647 166.969 72.5125H166.469C166.469 74.287 166.067 75.8124 165.274 77.0987L165.699 77.3613ZM166.969 72.5125C166.969 70.8321 166.606 69.3169 165.876 67.9731L165.437 68.2119C166.123 69.4747 166.469 70.9063 166.469 72.5125H166.969ZM165.876 67.9731C165.144 66.6263 164.075 65.5589 162.676 64.7721L162.431 65.2079C163.753 65.9511 164.752 66.952 165.437 68.2119L165.876 67.9731ZM162.68 64.7741C161.274 63.9542 159.6 63.55 157.666 63.55V64.05C159.53 64.05 161.113 64.4391 162.428 65.2059L162.68 64.7741ZM157.666 63.55H142.281V64.05H157.666V63.55ZM142.031 63.8V81.3525H142.531V63.8H142.031ZM142.281 54.4875H156.051V53.9875H142.281V54.4875ZM156.051 54.4875C157.557 54.4875 158.913 54.1977 160.113 53.6122L159.894 53.1628C158.771 53.7106 157.492 53.9875 156.051 53.9875V54.4875ZM160.113 53.6122C161.318 53.0246 162.274 52.1562 162.979 51.011L162.553 50.749C161.898 51.8137 161.013 52.617 159.894 53.1628L160.113 53.6122ZM162.979 51.011C163.689 49.858 164.036 48.45 164.036 46.8H163.536C163.536 48.38 163.204 49.692 162.553 50.749L162.979 51.011ZM164.036 46.8C164.036 44.6163 163.335 42.7816 161.927 41.3144L161.566 41.6606C162.877 43.0267 163.536 44.7337 163.536 46.8H164.036ZM161.927 41.3144C160.509 39.8373 158.539 39.1125 156.051 39.1125V39.6125C158.437 39.6125 160.264 40.3044 161.566 41.6606L161.927 41.3144ZM156.051 39.1125H142.281V39.6125H156.051V39.1125ZM142.031 39.3625V54.2375H142.531V39.3625H142.031ZM187.234 91H186.984V91.25H187.234V91ZM187.234 29.8V29.55H186.984V29.8H187.234ZM226.759 29.8H227.009V29.55H226.759V29.8ZM226.759 39.405V39.655H227.009V39.405H226.759ZM197.477 39.405V39.155H197.227V39.405H197.477ZM197.477 54.4925H197.227V54.7425H197.477V54.4925ZM221.659 54.4925H221.909V54.2425H221.659V54.4925ZM221.659 64.0975V64.3475H221.909V64.0975H221.659ZM197.477 64.0975V63.8475H197.227V64.0975H197.477ZM197.477 81.395H197.227V81.645H197.477V81.395ZM226.759 81.395H227.009V81.145H226.759V81.395ZM226.759 91V91.25H227.009V91H226.759ZM187.484 91V29.8H186.984V91H187.484ZM187.234 30.05H226.759V29.55H187.234V30.05ZM226.509 29.8V39.405H227.009V29.8H226.509ZM226.759 39.155H197.477V39.655H226.759V39.155ZM197.227 39.405V54.4925H197.727V39.405H197.227ZM197.477 54.7425H221.659V54.2425H197.477V54.7425ZM221.409 54.4925V64.0975H221.909V54.4925H221.409ZM221.659 63.8475H197.477V64.3475H221.659V63.8475ZM197.227 64.0975V81.395H197.727V64.0975H197.227ZM197.477 81.645H226.759V81.145H197.477V81.645ZM226.509 81.395V91H227.009V81.395H226.509ZM226.759 90.75H187.234V91.25H226.759V90.75ZM253.361 91H253.111V91.25H253.361V91ZM253.361 39.405H253.611V39.155H253.361V39.405ZM233.556 39.405H233.306V39.655H233.556V39.405ZM233.556 29.8V29.55H233.306V29.8H233.556ZM283.409 29.8H283.659V29.55H283.409V29.8ZM283.409 39.405V39.655H283.659V39.405H283.409ZM263.604 39.405V39.155H263.354V39.405H263.604ZM263.604 91V91.25H263.854V91H263.604ZM253.611 91V39.405H253.111V91H253.611ZM253.361 39.155H233.556V39.655H253.361V39.155ZM233.806 39.405V29.8H233.306V39.405H233.806ZM233.556 30.05H283.409V29.55H233.556V30.05ZM283.159 29.8V39.405H283.659V29.8H283.159ZM283.409 39.155H263.604V39.655H283.409V39.155ZM263.354 39.405V91H263.854V39.405H263.354ZM263.604 90.75H253.361V91.25H263.604V90.75ZM311.672 91H311.422V91.25H311.672V91ZM311.672 39.405H311.922V39.155H311.672V39.405ZM291.867 39.405H291.617V39.655H291.867V39.405ZM291.867 29.8V29.55H291.617V29.8H291.867ZM341.72 29.8H341.97V29.55H341.72V29.8ZM341.72 39.405V39.655H341.97V39.405H341.72ZM321.915 39.405V39.155H321.665V39.405H321.915ZM321.915 91V91.25H322.165V91H321.915ZM311.922 91V39.405H311.422V91H311.922ZM311.672 39.155H291.867V39.655H311.672V39.155ZM292.117 39.405V29.8H291.617V39.405H292.117ZM291.867 30.05H341.72V29.55H291.867V30.05ZM341.47 29.8V39.405H341.97V29.8H341.47ZM341.72 39.155H321.915V39.655H341.72V39.155ZM321.665 39.405V91H322.165V39.405H321.665ZM321.915 90.75H311.672V91.25H321.915V90.75ZM344.305 91L344.067 90.9248L343.964 91.25H344.305V91ZM363.6 29.8V29.55H363.417L363.362 29.7248L363.6 29.8ZM378.603 29.8L378.841 29.7248L378.786 29.55H378.603V29.8ZM397.898 91V91.25H398.239L398.136 90.9248L397.898 91ZM387.358 91L387.119 91.076L387.175 91.25H387.358V91ZM369.848 36.09V35.84H369.505L369.609 36.166L369.848 36.09ZM372.143 36.09L372.381 36.1651L372.483 35.84H372.143V36.09ZM354.845 91V91.25H355.028L355.084 91.0751L354.845 91ZM355.058 77.74H354.808V77.99H355.058V77.74ZM355.058 68.1775V67.9275H354.808V68.1775H355.058ZM387.188 68.1775H387.438V67.9275H387.188V68.1775ZM387.188 77.74V77.99H387.438V77.74H387.188ZM344.544 91.0752L363.839 29.8752L363.362 29.7248L344.067 90.9248L344.544 91.0752ZM363.6 30.05H378.603V29.55H363.6V30.05ZM378.364 29.8752L397.659 91.0752L398.136 90.9248L378.841 29.7248L378.364 29.8752ZM397.898 90.75H387.358V91.25H397.898V90.75ZM387.596 90.924L370.086 36.014L369.609 36.166L387.119 91.076L387.596 90.924ZM369.848 36.34H372.143V35.84H369.848V36.34ZM371.904 36.0149L354.607 90.9249L355.084 91.0751L372.381 36.1651L371.904 36.0149ZM354.845 90.75H344.305V91.25H354.845V90.75ZM355.308 77.74V68.1775H354.808V77.74H355.308ZM355.058 68.4275H387.188V67.9275H355.058V68.4275ZM386.938 68.1775V77.74H387.438V68.1775H386.938ZM387.188 77.49H355.058V77.99H387.188V77.49Z" fill="url(#paint0_linear_1_1649)" fill-opacity="0.2" mask="url(#path-1-outside-1_1_1649)"/>
<defs>
<linearGradient id="paint0_linear_1_1649" x1="200.5" y1="0" x2="200.5" y2="116" gradientUnits="userSpaceOnUse">
<stop stop-color="white"/>
<stop offset="1" stop-color="white" stop-opacity="0"/>
</linearGradient>
</defs>
</svg>
