<svg width="87" height="67" viewBox="0 0 87 67" fill="none" xmlns="http://www.w3.org/2000/svg">
<path d="M77.9902 6.26116C87.9076 19.9707 81.6034 40.6543 64.3094 53.1647C47.0525 65.6482 25.9832 64.597 16.0448 50.8584C6.06587 37.0638 10.943 15.0722 28.1319 2.63786C45.3214 -9.79689 68.0116 -7.53305 77.9902 6.26116Z" stroke="url(#paint0_linear_1_1075)" stroke-width="2.45751"/>
<path d="M74.865 -0.568335C89.123 16.3282 85.4403 36.7586 65.6058 52.8555C45.1835 67.914 23.0302 64.2813 11.386 49.4706C-0.258223 34.6598 4.01245 10.0404 22.0959 -3.04107C40.1794 -16.1225 64.1374 -15.3979 74.865 -0.568335Z" fill="url(#paint1_linear_1_1075)"/>
<path d="M73.0372 -1.14232C78.0056 5.7259 78.8154 14.3535 76.1444 22.9328C73.4706 31.5212 67.3161 40.0032 58.4722 46.4008C40.7058 59.2529 19.2644 58.4379 9.34167 44.7209C-0.620772 30.9491 4.60328 8.67183 22.3014 -4.13089C40.0001 -16.934 63.075 -14.9137 73.0372 -1.14232Z" stroke="url(#paint2_linear_1_1075)" stroke-width="2.45751"/>
<path d="M69.5444 -1.45454C78.0468 10.299 73.1108 30.0968 55.9396 42.5182C38.7685 54.9397 18.4205 53.4323 9.91803 41.6787C1.41561 29.9252 6.35166 10.1274 23.5228 -2.29403C40.6939 -14.7155 61.042 -13.2081 69.5444 -1.45454Z" fill="#FFD93B" stroke="url(#paint3_linear_1_1075)" stroke-width="6.82641"/>
<path d="M64.7919 1.995C68.3129 6.86242 68.7679 13.3097 66.5668 19.8511C64.3661 26.3913 59.5203 32.9783 52.5309 38.0344C45.5415 43.0905 37.7689 45.6315 30.8685 45.675C23.9668 45.7184 17.9858 43.2687 14.4647 38.4013C10.9437 33.5339 10.4887 27.0866 12.6898 20.5452C14.8905 14.005 19.7363 7.41797 26.7257 2.3619C33.7151 -2.69417 41.4877 -5.23521 48.3881 -5.27866C55.2898 -5.32212 61.2708 -2.87242 64.7919 1.995Z" stroke="url(#paint4_linear_1_1075)" stroke-width="1.09223"/>
<path d="M53.6827 6.78285L54.5656 6.77446C55.5958 6.78348 56.626 6.779 57.6559 6.761C57.7384 6.75973 57.8263 6.76228 57.9195 6.76863C58.073 6.77875 58.2 6.89699 58.1284 7.0533C56.478 10.6845 54.8378 14.2918 53.2077 17.8751C53.112 18.0852 52.8796 18.2271 52.6531 18.2292C50.6571 18.2502 48.529 18.2697 46.2686 18.2878C46.0839 18.2895 45.9907 18.1891 45.9893 17.9864C45.9776 16.3766 45.2263 14.9201 43.8703 14.1179C41.9029 12.953 39.394 13.2259 37.3203 13.9738C35.2676 14.7143 33.2784 15.9255 31.5833 17.5501C29.9839 19.084 28.0995 21.1703 27.4863 23.2804C26.8723 25.392 26.7402 27.5823 28.5166 28.9849C29.7009 29.9197 31.3237 30.1678 32.793 30.0257C35.496 29.764 38.1042 28.4478 40.2001 26.6899C40.6991 26.2718 41.1779 25.8488 41.6083 25.372C41.7823 25.1778 42.0031 24.9535 42.2846 24.9508C44.4022 24.9307 46.5115 24.9104 48.6126 24.8899C48.9069 24.8871 48.9931 25.0195 48.8711 25.2871C47.2632 28.8199 45.6464 32.3765 44.0206 35.9569C43.8987 36.2254 43.6787 36.3594 43.3608 36.3591C42.5405 36.3572 41.4594 36.3738 40.1174 36.4088L39.2656 36.4169L39.1284 36.3718C39.1051 36.3643 39.0881 36.3495 39.0773 36.3274C39.0379 36.2458 39.0378 36.1618 39.077 36.0755C39.6735 34.7674 40.2917 33.4066 40.9316 31.9933C40.934 31.9881 40.935 31.9823 40.9346 31.9766C40.9342 31.9708 40.9323 31.9653 40.9291 31.9605C40.926 31.9556 40.9216 31.9517 40.9165 31.949C40.9114 31.9463 40.9058 31.945 40.9 31.9451C40.3645 31.9531 39.7778 31.9589 39.14 31.9626C39.0469 31.963 38.9581 31.9865 38.8736 32.0331C37.2371 32.9412 35.546 33.6595 33.7209 34.1408C31.2822 34.7851 28.4018 34.9558 26.0322 33.9613C23.8513 33.0458 22.4961 31.4169 21.9667 29.0747C21.3562 26.3703 22.7802 23.4294 24.0311 21.0178C24.6451 19.834 25.3331 18.7602 26.095 17.7965C28.4893 14.7701 31.771 12.3962 35.1499 10.7102C36.5524 10.0099 38.0497 9.4658 39.5692 9.11837C42.8783 8.36375 46.8926 8.54998 49.3165 11.2219C49.3511 11.2602 49.3943 11.2791 49.4459 11.2786L51.2732 11.2605C51.2898 11.2603 51.3061 11.2553 51.3201 11.2461C51.3342 11.2369 51.3453 11.2238 51.3523 11.2084C51.9639 9.86001 52.582 8.50071 53.2069 7.1305C53.292 6.94389 53.4506 6.82801 53.6827 6.78285Z" fill="url(#paint5_linear_1_1075)" fill-opacity="0.5"/>
<path d="M53.6827 6.78285L54.5656 6.77446C55.5958 6.78348 56.626 6.779 57.6559 6.761C57.7384 6.75973 57.8263 6.76228 57.9195 6.76863C58.073 6.77875 58.2 6.89699 58.1284 7.0533C56.478 10.6845 54.8378 14.2918 53.2077 17.8751C53.112 18.0852 52.8796 18.2271 52.6531 18.2292C50.6571 18.2502 48.529 18.2697 46.2686 18.2878C46.0839 18.2895 45.9907 18.1891 45.9893 17.9864C45.9776 16.3766 45.2263 14.9201 43.8703 14.1179C41.9029 12.953 39.394 13.2259 37.3203 13.9738C35.2676 14.7143 33.2784 15.9255 31.5833 17.5501C29.9839 19.084 28.0995 21.1703 27.4863 23.2804C26.8723 25.392 26.7402 27.5823 28.5166 28.9849C29.7009 29.9197 31.3237 30.1678 32.793 30.0257C35.496 29.764 38.1042 28.4478 40.2001 26.6899C40.6991 26.2718 41.1779 25.8488 41.6083 25.372C41.7823 25.1778 42.0031 24.9535 42.2846 24.9508C44.4022 24.9307 46.5115 24.9104 48.6126 24.8899C48.9069 24.8871 48.9931 25.0195 48.8711 25.2871C47.2632 28.8199 45.6464 32.3765 44.0206 35.9569C43.8987 36.2254 43.6787 36.3594 43.3608 36.3591C42.5405 36.3572 41.4594 36.3738 40.1174 36.4088L39.2656 36.4169L39.1284 36.3718C39.1051 36.3643 39.0881 36.3495 39.0773 36.3274C39.0379 36.2458 39.0378 36.1618 39.077 36.0755C39.6735 34.7674 40.2917 33.4066 40.9316 31.9933C40.934 31.9881 40.935 31.9823 40.9346 31.9766C40.9342 31.9708 40.9323 31.9653 40.9291 31.9605C40.926 31.9556 40.9216 31.9517 40.9165 31.949C40.9114 31.9463 40.9058 31.945 40.9 31.9451C40.3645 31.9531 39.7778 31.9589 39.14 31.9626C39.0469 31.963 38.9581 31.9865 38.8736 32.0331C37.2371 32.9412 35.546 33.6595 33.7209 34.1408C31.2822 34.7851 28.4018 34.9558 26.0322 33.9613C23.8513 33.0458 22.4961 31.4169 21.9667 29.0747C21.3562 26.3703 22.7802 23.4294 24.0311 21.0178C24.6451 19.834 25.3331 18.7602 26.095 17.7965C28.4893 14.7701 31.771 12.3962 35.1499 10.7102C36.5524 10.0099 38.0497 9.4658 39.5692 9.11837C42.8783 8.36375 46.8926 8.54998 49.3165 11.2219C49.3511 11.2602 49.3943 11.2791 49.4459 11.2786L51.2732 11.2605C51.2898 11.2603 51.3061 11.2553 51.3201 11.2461C51.3342 11.2369 51.3453 11.2238 51.3523 11.2084C51.9639 9.86001 52.582 8.50071 53.2069 7.1305C53.292 6.94389 53.4506 6.82801 53.6827 6.78285Z" fill="black" fill-opacity="0.1"/>
<g filter="url(#filter0_d_1_1075)">
<path d="M53.5215 6.29785L54.4044 6.28946C55.4346 6.29848 56.4647 6.294 57.4947 6.276C57.5772 6.27473 57.665 6.27728 57.7582 6.28363C57.9117 6.29375 58.0388 6.41198 57.9672 6.5683C56.3168 10.1995 54.6766 13.8068 53.0465 17.3901C52.9508 17.6002 52.7183 17.7421 52.4918 17.7442C50.4959 17.7652 48.3678 17.7847 46.1074 17.8028C45.9226 17.8045 45.8295 17.7041 45.828 17.5014C45.8164 15.8916 45.065 14.4351 43.709 13.6329C41.7416 12.468 39.2328 12.7409 37.1591 13.4888C35.1063 14.2293 33.1171 15.4405 31.4221 17.0651C29.8227 18.599 27.9382 20.6853 27.325 22.7954C26.7111 24.907 26.5789 27.0973 28.3553 28.4999C29.5396 29.4347 31.1625 29.6828 32.6318 29.5407C35.3347 29.279 37.9429 27.9628 40.0388 26.2049C40.5379 25.7868 41.0166 25.3638 41.4471 24.887C41.6211 24.6928 41.8419 24.4685 42.1234 24.4658C44.2409 24.4457 46.3502 24.4254 48.4513 24.4049C48.7456 24.4021 48.8318 24.5345 48.7099 24.8021C47.102 28.3349 45.4851 31.8915 43.8594 35.4719C43.7374 35.7404 43.5175 35.8744 43.1995 35.8741C42.3792 35.8722 41.2981 35.8888 39.9561 35.9238L39.1043 35.9319L38.9671 35.8868C38.9439 35.8793 38.9268 35.8645 38.916 35.8424C38.8766 35.7608 38.8766 35.6768 38.9158 35.5905C39.5123 34.2824 40.1305 32.9216 40.7703 31.5083C40.7727 31.5031 40.7738 31.4973 40.7733 31.4916C40.7729 31.4858 40.771 31.4803 40.7679 31.4755C40.7647 31.4706 40.7604 31.4667 40.7553 31.464C40.7502 31.4613 40.7445 31.46 40.7387 31.4601C40.2032 31.4681 39.6166 31.4739 38.9787 31.4776C38.8856 31.478 38.7968 31.5015 38.7123 31.5481C37.0759 32.4562 35.3848 33.1745 33.5597 33.6558C31.121 34.3001 28.2406 34.4708 25.871 33.4763C23.69 32.5608 22.3348 30.9319 21.8055 28.5897C21.195 25.8853 22.6189 22.9444 23.8698 20.5328C24.4839 19.349 25.1718 18.2752 25.9337 17.3115C28.3281 14.2851 31.6098 11.9112 34.9886 10.2252C36.3911 9.52492 37.8885 8.9808 39.408 8.63337C42.717 7.87875 46.7313 8.06498 49.1553 10.7369C49.1899 10.7752 49.233 10.7941 49.2846 10.7936L51.1119 10.7755C51.1286 10.7753 51.1449 10.7703 51.1589 10.7611C51.1729 10.7519 51.1841 10.7388 51.1911 10.7234C51.8026 9.37501 52.4208 8.01571 53.0456 6.6455C53.1307 6.45889 53.2893 6.34301 53.5215 6.29785Z" fill="url(#paint6_linear_1_1075)" fill-opacity="0.8" shape-rendering="crispEdges"/>
</g>
<g filter="url(#filter1_f_1_1075)">
<path d="M78.4951 18.0244L83.5454 26.0727C85.1103 16.8764 81.6887 9.51568 80.3441 7.47369C79.2799 5.47891 77.3056 2.67688 74.9804 -0.39758C68.8092 -10.0455 55.8005 -18.6503 35.5786 -12.2249C11.5275 -3.95343 3.55541 15.5378 2.7002 24.1445L76.4391 17.082L78.4951 18.0244Z" fill="url(#paint7_linear_1_1075)" fill-opacity="0.3"/>
</g>
<defs>
<filter id="filter0_d_1_1075" x="21.1475" y="6.27568" width="37.3521" height="30.6802" filterUnits="userSpaceOnUse" color-interpolation-filters="sRGB">
<feFlood flood-opacity="0" result="BackgroundImageFix"/>
<feColorMatrix in="SourceAlpha" type="matrix" values="0 0 0 0 0 0 0 0 0 0 0 0 0 0 0 0 0 0 127 0" result="hardAlpha"/>
<feOffset dy="0.512"/>
<feGaussianBlur stdDeviation="0.256"/>
<feComposite in2="hardAlpha" operator="out"/>
<feColorMatrix type="matrix" values="0 0 0 0 0 0 0 0 0 0 0 0 0 0 0 0 0 0 0.1 0"/>
<feBlend mode="normal" in2="BackgroundImageFix" result="effect1_dropShadow_1_1075"/>
<feBlend mode="normal" in="SourceGraphic" in2="effect1_dropShadow_1_1075" result="shape"/>
</filter>
<filter id="filter1_f_1_1075" x="1.60797" y="-15.5396" width="83.4312" height="42.7045" filterUnits="userSpaceOnUse" color-interpolation-filters="sRGB">
<feFlood flood-opacity="0" result="BackgroundImageFix"/>
<feBlend mode="normal" in="SourceGraphic" in2="BackgroundImageFix" result="shape"/>
<feGaussianBlur stdDeviation="0.546113" result="effect1_foregroundBlur_1_1075"/>
</filter>
<linearGradient id="paint0_linear_1_1075" x1="76.9955" y1="2.75329" x2="24.1786" y2="62.128" gradientUnits="userSpaceOnUse">
<stop stop-color="#FDF8CE"/>
<stop offset="0.0550575" stop-color="#F2E158"/>
<stop offset="0.170676" stop-color="#FCF5AF"/>
<stop offset="0.309086" stop-color="#ECD42F"/>
<stop offset="0.491314" stop-color="#E9B00C"/>
<stop offset="0.704021" stop-color="#ECB600"/>
<stop offset="0.78935" stop-color="#E8CF29"/>
<stop offset="0.843399" stop-color="#EBD431"/>
<stop offset="0.909367" stop-color="#E2C317"/>
<stop offset="1" stop-color="#E9D14F"/>
</linearGradient>
<linearGradient id="paint1_linear_1_1075" x1="76.0883" y1="3.14065" x2="17.6982" y2="62.1047" gradientUnits="userSpaceOnUse">
<stop stop-color="#EEBB5C"/>
<stop offset="0.0550575" stop-color="#FDEE48"/>
<stop offset="0.170676" stop-color="#E8BB06"/>
<stop offset="0.309086" stop-color="#D57B01"/>
<stop offset="0.491314" stop-color="#C86101"/>
<stop offset="0.660555" stop-color="#D88C2D"/>
<stop offset="0.771761" stop-color="#E8BE29"/>
<stop offset="0.815114" stop-color="#E8BE29"/>
<stop offset="0.881945" stop-color="#E8AE0E"/>
<stop offset="0.930202" stop-color="#D98317"/>
<stop offset="1" stop-color="#EBAE4E"/>
</linearGradient>
<linearGradient id="paint2_linear_1_1075" x1="72.0429" y1="-4.65053" x2="18.2005" y2="56.5848" gradientUnits="userSpaceOnUse">
<stop stop-color="#FDF8CE"/>
<stop offset="0.0550575" stop-color="#F2E158"/>
<stop offset="0.170676" stop-color="#FCF5AF"/>
<stop offset="0.309086" stop-color="#ECD42F"/>
<stop offset="0.491314" stop-color="#E9B00C"/>
<stop offset="0.704021" stop-color="#ECB600"/>
<stop offset="0.78935" stop-color="#E8CF29"/>
<stop offset="0.843399" stop-color="#EBD431"/>
<stop offset="0.909367" stop-color="#E2C317"/>
<stop offset="1" stop-color="#E9D14F"/>
</linearGradient>
<linearGradient id="paint3_linear_1_1075" x1="54.8992" y1="-14.8511" x2="28.7107" y2="55.1684" gradientUnits="userSpaceOnUse">
<stop stop-color="#FFDC5E"/>
<stop offset="0.417119" stop-color="#FFED97"/>
<stop offset="1" stop-color="#FFF27B"/>
</linearGradient>
<linearGradient id="paint4_linear_1_1075" x1="26.7515" y1="0.509853" x2="54.9447" y2="37.8537" gradientUnits="userSpaceOnUse">
<stop stop-color="#E4991A"/>
<stop offset="0.474971" stop-color="#EAAA2E" stop-opacity="0"/>
<stop offset="1" stop-color="#FFF27B" stop-opacity="0"/>
</linearGradient>
<linearGradient id="paint5_linear_1_1075" x1="39.8855" y1="6.91404" x2="40.166" y2="36.4083" gradientUnits="userSpaceOnUse">
<stop stop-color="#E1A737"/>
<stop offset="0.494792" stop-color="#EEA230"/>
<stop offset="1" stop-color="#DB9224"/>
</linearGradient>
<linearGradient id="paint6_linear_1_1075" x1="39.7243" y1="6.42903" x2="40.0047" y2="35.9233" gradientUnits="userSpaceOnUse">
<stop stop-color="#E1A737"/>
<stop offset="0.494792" stop-color="#EEA230"/>
<stop offset="1" stop-color="#DB9224"/>
</linearGradient>
<linearGradient id="paint7_linear_1_1075" x1="29.5709" y1="20.9753" x2="28.4935" y2="-17.4501" gradientUnits="userSpaceOnUse">
<stop stop-color="white"/>
<stop offset="0.105858" stop-color="white"/>
<stop offset="0.21696" stop-color="white" stop-opacity="0.961194"/>
<stop offset="1" stop-color="white" stop-opacity="0"/>
</linearGradient>
</defs>
</svg>
