<svg width="139" height="163" viewBox="0 0 139 163" fill="none" xmlns="http://www.w3.org/2000/svg">
<g opacity="0.5">
<g opacity="0.2" filter="url(#filter0_f_1_1652)">
<ellipse cx="71.2861" cy="143.121" rx="54.9219" ry="6.61191" fill="url(#paint0_linear_1_1652)"/>
</g>
<g opacity="0.5" filter="url(#filter1_f_1_1652)">
<path d="M110.156 145.823C110.156 146.464 92.3271 148.733 69.2056 148.733C46.0841 148.733 27.3404 148.213 27.3404 147.572C-0.731792 146.052 48.139 139.808 71.2605 139.808C94.382 139.808 110.156 145.182 110.156 145.823Z" fill="url(#paint1_linear_1_1652)"/>
</g>
<g opacity="0.3" filter="url(#filter2_f_1_1652)">
<ellipse cx="63.0864" cy="146.455" rx="49.4844" ry="3.2785" fill="url(#paint2_linear_1_1652)"/>
</g>
<g opacity="0.3" filter="url(#filter3_f_1_1652)">
<ellipse cx="65.9216" cy="147.599" rx="42.7305" ry="1.31726" fill="url(#paint3_linear_1_1652)"/>
</g>
</g>
<path d="M119.717 36.0504C134.888 57.0213 125.32 88.8381 98.5902 108.174C71.9327 127.458 39.5645 125.732 24.3532 104.705C9.06276 83.5674 16.4818 49.7239 43.0066 30.536C69.5323 11.3475 104.428 14.914 119.717 36.0504Z" stroke="url(#paint4_linear_1_1652)" stroke-width="4.79982"/>
<path d="M115.265 25.1581C137.399 51.3878 131.682 83.1033 100.891 108.092C69.1883 131.468 34.7982 125.829 16.7221 102.837C-1.35403 79.8452 5.27562 41.6268 33.3478 21.3195C61.42 1.01232 98.6117 2.13712 115.265 25.1581Z" fill="url(#paint5_linear_1_1652)"/>
<path d="M112.028 24.5499C119.633 35.0617 120.891 48.2867 116.781 61.4884C112.665 74.7079 103.181 87.7904 89.5286 97.6668C62.0692 117.531 29.1282 116.155 13.9475 95.1694C-1.3108 74.0768 6.62937 39.7884 33.9554 20.0209C61.2825 0.252754 96.7707 3.45809 112.028 24.5499Z" stroke="url(#paint6_linear_1_1652)" stroke-width="4.79982"/>
<path d="M105.898 24.5826C118.474 41.9674 111.411 71.89 85.0847 90.9345C58.758 109.979 28.1282 107.323 15.5521 89.9379C2.97605 72.553 10.0385 42.6305 36.3652 23.5859C62.6919 4.54141 93.3216 7.19772 105.898 24.5826Z" fill="#FFD93B" stroke="url(#paint7_linear_1_1652)" stroke-width="13.3328"/>
<path d="M99.4497 29.2682C104.863 36.752 105.576 46.6821 102.175 56.7893C98.7748 66.8942 91.2827 77.0838 80.4652 84.909C69.6478 92.7343 57.6254 96.6613 46.9641 96.7285C36.3002 96.7956 27.0918 93.0115 21.6781 85.5276C16.2643 78.0438 15.5519 68.1137 18.9529 58.0065C22.353 47.9016 29.8451 37.712 40.6626 29.8868C51.48 22.0615 63.5024 18.1345 74.1637 18.0673C84.8276 18.0002 94.036 21.7843 99.4497 29.2682Z" stroke="url(#paint8_linear_1_1652)" stroke-width="2.13325"/>
<path d="M82.3818 36.569L83.7524 36.556C85.3517 36.57 86.9508 36.5631 88.5497 36.5351C88.6777 36.5332 88.8141 36.5371 88.9587 36.547C89.1971 36.5627 89.3943 36.7462 89.2832 36.9889C86.7212 42.6259 84.1749 48.2257 81.6444 53.7883C81.4958 54.1144 81.135 54.3347 80.7834 54.3381C77.685 54.3705 74.3813 54.4008 70.8724 54.4289C70.5855 54.4317 70.441 54.2757 70.4388 53.9611C70.4206 51.4621 69.2542 49.201 67.1492 47.9557C64.0951 46.1474 60.2005 46.571 56.9813 47.7321C53.7947 48.8816 50.7067 50.7619 48.0754 53.2838C45.5925 55.665 42.6672 58.9036 41.7152 62.1794C40.7622 65.4574 40.557 68.8574 43.3147 71.0348C45.1531 72.4861 47.6724 72.8711 49.9533 72.6505C54.1492 72.2443 58.1981 70.2011 61.4518 67.4721C62.2265 66.8231 62.9696 66.1665 63.6378 65.4263C63.908 65.1248 64.2507 64.7766 64.6877 64.7724C67.9749 64.7412 71.2494 64.7097 74.5111 64.6779C74.9679 64.6736 75.1017 64.8791 74.9124 65.2944C72.4164 70.7787 69.9065 76.2999 67.3826 81.8579C67.1934 82.2747 66.8519 82.4828 66.3583 82.4823C65.0849 82.4794 63.4066 82.5051 61.3233 82.5594L60.0011 82.572L59.788 82.5021C59.752 82.4904 59.7255 82.4675 59.7087 82.4332C59.6476 82.3064 59.6475 82.176 59.7084 82.0421C60.6343 80.0113 61.594 77.8989 62.5873 75.705C62.591 75.6968 62.5926 75.6879 62.592 75.679C62.5913 75.6701 62.5884 75.6615 62.5835 75.654C62.5786 75.6465 62.5719 75.6404 62.564 75.6362C62.5561 75.6321 62.5472 75.63 62.5383 75.6301C61.707 75.6425 60.7963 75.6516 59.8061 75.6572C59.6615 75.6579 59.5237 75.6944 59.3926 75.7668C56.8522 77.1765 54.2269 78.2915 51.3937 79.0388C47.6079 80.0389 43.1365 80.3039 39.458 78.7601C36.0724 77.3389 33.9686 74.8103 33.1468 71.1742C32.1991 66.9759 34.4096 62.4106 36.3515 58.667C37.3047 56.8292 38.3727 55.1623 39.5554 53.6662C43.2724 48.9682 48.3667 45.283 53.612 42.6658C55.7892 41.5786 58.1136 40.734 60.4724 40.1946C65.6093 39.0232 71.841 39.3123 75.6038 43.4602C75.6576 43.5196 75.7245 43.5489 75.8046 43.5481L78.6413 43.5201C78.6672 43.5198 78.6924 43.512 78.7142 43.4976C78.736 43.4833 78.7533 43.463 78.7641 43.4391C79.7135 41.3459 80.6731 39.2358 81.6431 37.1087C81.7752 36.819 82.0214 36.6391 82.3818 36.569Z" fill="url(#paint9_linear_1_1652)" fill-opacity="0.5"/>
<path d="M82.3818 36.569L83.7524 36.556C85.3517 36.57 86.9508 36.5631 88.5497 36.5351C88.6777 36.5332 88.8141 36.5371 88.9587 36.547C89.1971 36.5627 89.3943 36.7462 89.2832 36.9889C86.7212 42.6259 84.1749 48.2257 81.6444 53.7883C81.4958 54.1144 81.135 54.3347 80.7834 54.3381C77.685 54.3705 74.3813 54.4008 70.8724 54.4289C70.5855 54.4317 70.441 54.2757 70.4388 53.9611C70.4206 51.4621 69.2542 49.201 67.1492 47.9557C64.0951 46.1474 60.2005 46.571 56.9813 47.7321C53.7947 48.8816 50.7067 50.7619 48.0754 53.2838C45.5925 55.665 42.6672 58.9036 41.7152 62.1794C40.7622 65.4574 40.557 68.8574 43.3147 71.0348C45.1531 72.4861 47.6724 72.8711 49.9533 72.6505C54.1492 72.2443 58.1981 70.2011 61.4518 67.4721C62.2265 66.8231 62.9696 66.1665 63.6378 65.4263C63.908 65.1248 64.2507 64.7766 64.6877 64.7724C67.9749 64.7412 71.2494 64.7097 74.5111 64.6779C74.9679 64.6736 75.1017 64.8791 74.9124 65.2944C72.4164 70.7787 69.9065 76.2999 67.3826 81.8579C67.1934 82.2747 66.8519 82.4828 66.3583 82.4823C65.0849 82.4794 63.4066 82.5051 61.3233 82.5594L60.0011 82.572L59.788 82.5021C59.752 82.4904 59.7255 82.4675 59.7087 82.4332C59.6476 82.3064 59.6475 82.176 59.7084 82.0421C60.6343 80.0113 61.594 77.8989 62.5873 75.705C62.591 75.6968 62.5926 75.6879 62.592 75.679C62.5913 75.6701 62.5884 75.6615 62.5835 75.654C62.5786 75.6465 62.5719 75.6404 62.564 75.6362C62.5561 75.6321 62.5472 75.63 62.5383 75.6301C61.707 75.6425 60.7963 75.6516 59.8061 75.6572C59.6615 75.6579 59.5237 75.6944 59.3926 75.7668C56.8522 77.1765 54.2269 78.2915 51.3937 79.0388C47.6079 80.0389 43.1365 80.3039 39.458 78.7601C36.0724 77.3389 33.9686 74.8103 33.1468 71.1742C32.1991 66.9759 34.4096 62.4106 36.3515 58.667C37.3047 56.8292 38.3727 55.1623 39.5554 53.6662C43.2724 48.9682 48.3667 45.283 53.612 42.6658C55.7892 41.5786 58.1136 40.734 60.4724 40.1946C65.6093 39.0232 71.841 39.3123 75.6038 43.4602C75.6576 43.5196 75.7245 43.5489 75.8046 43.5481L78.6413 43.5201C78.6672 43.5198 78.6924 43.512 78.7142 43.4976C78.736 43.4833 78.7533 43.463 78.7641 43.4391C79.7135 41.3459 80.6731 39.2358 81.6431 37.1087C81.7752 36.819 82.0214 36.6391 82.3818 36.569Z" fill="black" fill-opacity="0.1"/>
<g filter="url(#filter4_d_1_1652)">
<path d="M82.1318 35.819L83.5024 35.806C85.1017 35.82 86.7008 35.8131 88.2997 35.7851C88.4277 35.7832 88.5641 35.7871 88.7087 35.797C88.9471 35.8127 89.1443 35.9962 89.0332 36.2389C86.4712 41.8759 83.9249 47.4757 81.3944 53.0383C81.2458 53.3644 80.885 53.5847 80.5334 53.5881C77.435 53.6205 74.1313 53.6508 70.6224 53.6789C70.3355 53.6817 70.191 53.5257 70.1888 53.2111C70.1706 50.7121 69.0042 48.451 66.8992 47.2057C63.8451 45.3974 59.9505 45.821 56.7313 46.9821C53.5447 48.1316 50.4567 50.0119 47.8254 52.5338C45.3425 54.915 42.4172 58.1536 41.4652 61.4294C40.5122 64.7074 40.307 68.1074 43.0647 70.2848C44.9031 71.7361 47.4224 72.1211 49.7033 71.9005C53.8992 71.4943 57.9481 69.4511 61.2018 66.7221C61.9765 66.0731 62.7196 65.4165 63.3878 64.6763C63.658 64.3748 64.0007 64.0266 64.4377 64.0224C67.7249 63.9912 70.9994 63.9597 74.2611 63.9279C74.7179 63.9236 74.8517 64.1291 74.6624 64.5444C72.1664 70.0287 69.6565 75.5499 67.1326 81.1079C66.9434 81.5247 66.6019 81.7328 66.1083 81.7323C64.8349 81.7294 63.1566 81.7551 61.0733 81.8094L59.7511 81.822L59.538 81.7521C59.502 81.7404 59.4755 81.7175 59.4587 81.6832C59.3976 81.5564 59.3975 81.426 59.4584 81.2921C60.3843 79.2613 61.344 77.1489 62.3373 74.955C62.341 74.9468 62.3426 74.9379 62.342 74.929C62.3413 74.9201 62.3384 74.9115 62.3335 74.904C62.3286 74.8965 62.3219 74.8904 62.314 74.8862C62.3061 74.8821 62.2972 74.88 62.2883 74.8801C61.457 74.8925 60.5463 74.9016 59.5561 74.9072C59.4115 74.9079 59.2737 74.9444 59.1426 75.0168C56.6022 76.4265 53.9769 77.5415 51.1437 78.2888C47.3579 79.2889 42.8865 79.5539 39.208 78.0101C35.8224 76.5889 33.7186 74.0603 32.8968 70.4242C31.9491 66.2259 34.1596 61.6606 36.1015 57.917C37.0547 56.0792 38.1227 54.4123 39.3054 52.9162C43.0224 48.2182 48.1167 44.533 53.362 41.9158C55.5392 40.8286 57.8636 39.984 60.2224 39.4446C65.3593 38.2732 71.591 38.5623 75.3538 42.7102C75.4076 42.7696 75.4745 42.7989 75.5546 42.7981L78.3913 42.7701C78.4172 42.7698 78.4424 42.762 78.4642 42.7476C78.486 42.7333 78.5033 42.713 78.5141 42.6891C79.4635 40.5959 80.4231 38.4858 81.3931 36.3587C81.5252 36.069 81.7714 35.8891 82.1318 35.819Z" fill="url(#paint10_linear_1_1652)" fill-opacity="0.8" shape-rendering="crispEdges"/>
</g>
<g filter="url(#filter5_f_1_1652)">
<path d="M120.912 53.9081L128.752 66.4021C131.181 52.126 125.87 40.6995 123.782 37.5295C122.13 34.4329 119.065 30.0831 115.456 25.3104C105.876 10.3333 85.6815 -3.02459 54.2897 6.95009C16.9535 19.7904 4.57785 50.0481 3.25024 63.4088L117.72 52.4452L120.912 53.9081Z" fill="url(#paint11_linear_1_1652)" fill-opacity="0.3"/>
</g>
<defs>
<filter id="filter0_f_1_1652" x="3.86426" y="124.009" width="134.844" height="38.2238" filterUnits="userSpaceOnUse" color-interpolation-filters="sRGB">
<feFlood flood-opacity="0" result="BackgroundImageFix"/>
<feBlend mode="normal" in="SourceGraphic" in2="BackgroundImageFix" result="shape"/>
<feGaussianBlur stdDeviation="6.25" result="effect1_foregroundBlur_1_1652"/>
</filter>
<filter id="filter1_f_1_1652" x="11.3823" y="132.308" width="106.274" height="23.9248" filterUnits="userSpaceOnUse" color-interpolation-filters="sRGB">
<feFlood flood-opacity="0" result="BackgroundImageFix"/>
<feBlend mode="normal" in="SourceGraphic" in2="BackgroundImageFix" result="shape"/>
<feGaussianBlur stdDeviation="3.75" result="effect1_foregroundBlur_1_1652"/>
</filter>
<filter id="filter2_f_1_1652" x="11.1021" y="140.676" width="103.969" height="11.557" filterUnits="userSpaceOnUse" color-interpolation-filters="sRGB">
<feFlood flood-opacity="0" result="BackgroundImageFix"/>
<feBlend mode="normal" in="SourceGraphic" in2="BackgroundImageFix" result="shape"/>
<feGaussianBlur stdDeviation="1.25" result="effect1_foregroundBlur_1_1652"/>
</filter>
<filter id="filter3_f_1_1652" x="21.6912" y="144.781" width="88.4609" height="5.63452" filterUnits="userSpaceOnUse" color-interpolation-filters="sRGB">
<feFlood flood-opacity="0" result="BackgroundImageFix"/>
<feBlend mode="normal" in="SourceGraphic" in2="BackgroundImageFix" result="shape"/>
<feGaussianBlur stdDeviation="0.75" result="effect1_foregroundBlur_1_1652"/>
</filter>
<filter id="filter4_d_1_1652" x="31.6703" y="35.7846" width="58.3947" height="48.0373" filterUnits="userSpaceOnUse" color-interpolation-filters="sRGB">
<feFlood flood-opacity="0" result="BackgroundImageFix"/>
<feColorMatrix in="SourceAlpha" type="matrix" values="0 0 0 0 0 0 0 0 0 0 0 0 0 0 0 0 0 0 127 0" result="hardAlpha"/>
<feOffset dy="1"/>
<feGaussianBlur stdDeviation="0.5"/>
<feComposite in2="hardAlpha" operator="out"/>
<feColorMatrix type="matrix" values="0 0 0 0 0 0 0 0 0 0 0 0 0 0 0 0 0 0 0.1 0"/>
<feBlend mode="normal" in2="BackgroundImageFix" result="effect1_dropShadow_1_1652"/>
<feBlend mode="normal" in="SourceGraphic" in2="effect1_dropShadow_1_1652" result="shape"/>
</filter>
<filter id="filter5_f_1_1652" x="1.11699" y="1.36675" width="130.392" height="67.1686" filterUnits="userSpaceOnUse" color-interpolation-filters="sRGB">
<feFlood flood-opacity="0" result="BackgroundImageFix"/>
<feBlend mode="normal" in="SourceGraphic" in2="BackgroundImageFix" result="shape"/>
<feGaussianBlur stdDeviation="1.06663" result="effect1_foregroundBlur_1_1652"/>
</filter>
<linearGradient id="paint0_linear_1_1652" x1="71.2861" y1="134.885" x2="71.2861" y2="149.733" gradientUnits="userSpaceOnUse">
<stop stop-color="#CB9355" stop-opacity="0"/>
<stop offset="1" stop-color="#AC7D4B"/>
</linearGradient>
<linearGradient id="paint1_linear_1_1652" x1="71.0095" y1="137.944" x2="70.9388" y2="148.744" gradientUnits="userSpaceOnUse">
<stop stop-color="#AC7D4B" stop-opacity="0.27"/>
<stop offset="0.919275" stop-color="#81674C" stop-opacity="0"/>
</linearGradient>
<linearGradient id="paint2_linear_1_1652" x1="108.456" y1="149.733" x2="13.6021" y2="149.732" gradientUnits="userSpaceOnUse">
<stop stop-color="#CB9355" stop-opacity="0"/>
<stop offset="0.50698" stop-color="#9E8137"/>
<stop offset="1" stop-color="#856139" stop-opacity="0"/>
</linearGradient>
<linearGradient id="paint3_linear_1_1652" x1="105.099" y1="148.916" x2="23.1912" y2="148.915" gradientUnits="userSpaceOnUse">
<stop stop-color="#95813A" stop-opacity="0"/>
<stop offset="0.50698" stop-color="#7D6922"/>
<stop offset="1" stop-color="#856139" stop-opacity="0"/>
</linearGradient>
<linearGradient id="paint4_linear_1_1652" x1="118.572" y1="30.3162" x2="36.5809" y2="122.488" gradientUnits="userSpaceOnUse">
<stop stop-color="#FDF8CE"/>
<stop offset="0.0550575" stop-color="#F2E158"/>
<stop offset="0.170676" stop-color="#FCF5AF"/>
<stop offset="0.309086" stop-color="#ECD42F"/>
<stop offset="0.491314" stop-color="#E9B00C"/>
<stop offset="0.704021" stop-color="#ECB600"/>
<stop offset="0.78935" stop-color="#E8CF29"/>
<stop offset="0.843399" stop-color="#EBD431"/>
<stop offset="0.909367" stop-color="#E2C317"/>
<stop offset="1" stop-color="#E9D14F"/>
</linearGradient>
<linearGradient id="paint5_linear_1_1652" x1="117.164" y1="30.9158" x2="26.5209" y2="122.45" gradientUnits="userSpaceOnUse">
<stop stop-color="#EEBB5C"/>
<stop offset="0.0550575" stop-color="#FDEE48"/>
<stop offset="0.170676" stop-color="#E8BB06"/>
<stop offset="0.309086" stop-color="#D57B01"/>
<stop offset="0.491314" stop-color="#C86101"/>
<stop offset="0.660555" stop-color="#D88C2D"/>
<stop offset="0.771761" stop-color="#E8BE29"/>
<stop offset="0.815114" stop-color="#E8BE29"/>
<stop offset="0.881945" stop-color="#E8AE0E"/>
<stop offset="0.930202" stop-color="#D98317"/>
<stop offset="1" stop-color="#EBAE4E"/>
</linearGradient>
<linearGradient id="paint6_linear_1_1652" x1="110.884" y1="18.8153" x2="27.3007" y2="113.875" gradientUnits="userSpaceOnUse">
<stop stop-color="#FDF8CE"/>
<stop offset="0.0550575" stop-color="#F2E158"/>
<stop offset="0.170676" stop-color="#FCF5AF"/>
<stop offset="0.309086" stop-color="#ECD42F"/>
<stop offset="0.491314" stop-color="#E9B00C"/>
<stop offset="0.704021" stop-color="#ECB600"/>
<stop offset="0.78935" stop-color="#E8CF29"/>
<stop offset="0.843399" stop-color="#EBD431"/>
<stop offset="0.909367" stop-color="#E2C317"/>
<stop offset="1" stop-color="#E9D14F"/>
</linearGradient>
<linearGradient id="paint7_linear_1_1652" x1="84.2712" y1="2.98437" x2="43.617" y2="111.681" gradientUnits="userSpaceOnUse">
<stop stop-color="#FFDC5E"/>
<stop offset="0.417119" stop-color="#FFED97"/>
<stop offset="1" stop-color="#FFF27B"/>
</linearGradient>
<linearGradient id="paint8_linear_1_1652" x1="40.5744" y1="26.8344" x2="84.3405" y2="84.8059" gradientUnits="userSpaceOnUse">
<stop stop-color="#E4991A"/>
<stop offset="0.474971" stop-color="#EAAA2E" stop-opacity="0"/>
<stop offset="1" stop-color="#FFF27B" stop-opacity="0"/>
</linearGradient>
<linearGradient id="paint9_linear_1_1652" x1="60.9635" y1="36.7727" x2="61.3988" y2="82.5587" gradientUnits="userSpaceOnUse">
<stop stop-color="#E1A737"/>
<stop offset="0.494792" stop-color="#EEA230"/>
<stop offset="1" stop-color="#DB9224"/>
</linearGradient>
<linearGradient id="paint10_linear_1_1652" x1="60.7135" y1="36.0227" x2="61.1488" y2="81.8087" gradientUnits="userSpaceOnUse">
<stop stop-color="#E1A737"/>
<stop offset="0.494792" stop-color="#EEA230"/>
<stop offset="1" stop-color="#DB9224"/>
</linearGradient>
<linearGradient id="paint11_linear_1_1652" x1="44.9634" y1="58.489" x2="43.291" y2="-1.16134" gradientUnits="userSpaceOnUse">
<stop stop-color="white"/>
<stop offset="0.105858" stop-color="white"/>
<stop offset="0.21696" stop-color="white" stop-opacity="0.961194"/>
<stop offset="1" stop-color="white" stop-opacity="0"/>
</linearGradient>
</defs>
</svg>
