<svg width="78" height="14" viewBox="0 0 78 14" fill="none" xmlns="http://www.w3.org/2000/svg">
<g filter="url(#filter0_d_1_3224)">
<path d="M4.2358 11.1392C3.65246 11.1392 3.12713 11.0232 2.6598 10.7912C2.19247 10.5592 1.81795 10.241 1.53622 9.83665C1.2545 9.43229 1.10038 8.97159 1.07386 8.45455H2.26705C2.31345 8.91525 2.52225 9.2964 2.89347 9.59801C3.26799 9.89631 3.71544 10.0455 4.2358 10.0455C4.65341 10.0455 5.02462 9.94768 5.34943 9.75213C5.67756 9.55658 5.93442 9.28812 6.12003 8.94673C6.30895 8.60204 6.40341 8.21259 6.40341 7.77841C6.40341 7.33428 6.30563 6.93821 6.11009 6.5902C5.91785 6.23887 5.6527 5.96212 5.31463 5.75994C4.97656 5.55776 4.59044 5.45502 4.15625 5.4517C3.8447 5.44839 3.52486 5.49645 3.19673 5.59588C2.86861 5.692 2.59848 5.81629 2.38636 5.96875L1.23295 5.82955L1.84943 0.818182H7.1392V1.91193H2.88352L2.52557 4.91477H2.58523C2.79403 4.74905 3.05587 4.61151 3.37074 4.50213C3.68561 4.39276 4.01373 4.33807 4.35511 4.33807C4.97822 4.33807 5.53338 4.48722 6.0206 4.78551C6.51113 5.08049 6.8956 5.48485 7.17401 5.99858C7.45573 6.51231 7.59659 7.09896 7.59659 7.75852C7.59659 8.40814 7.45076 8.98816 7.15909 9.49858C6.87074 10.0057 6.47301 10.4067 5.96591 10.7017C5.45881 10.9934 4.8821 11.1392 4.2358 11.1392ZM17.1069 7.81818H18.4592L19.5927 9.30966L19.891 9.70739L21.5813 11.9545H20.2291L19.1154 10.4631L18.837 10.0852L17.1069 7.81818ZM21.9989 5.90909C21.9989 6.98295 21.8051 7.91098 21.4173 8.69318C21.0295 9.47538 20.4975 10.0786 19.8214 10.5028C19.1452 10.9271 18.373 11.1392 17.5046 11.1392C16.6363 11.1392 15.864 10.9271 15.1879 10.5028C14.5117 10.0786 13.9798 9.47538 13.592 8.69318C13.2042 7.91098 13.0103 6.98295 13.0103 5.90909C13.0103 4.83523 13.2042 3.9072 13.592 3.125C13.9798 2.3428 14.5117 1.73958 15.1879 1.31534C15.864 0.891098 16.6363 0.678977 17.5046 0.678977C18.373 0.678977 19.1452 0.891098 19.8214 1.31534C20.4975 1.73958 21.0295 2.3428 21.4173 3.125C21.8051 3.9072 21.9989 4.83523 21.9989 5.90909ZM20.8058 5.90909C20.8058 5.02746 20.6583 4.28338 20.3633 3.67685C20.0716 3.07031 19.6756 2.61127 19.1751 2.29972C18.6779 1.98816 18.1211 1.83239 17.5046 1.83239C16.8881 1.83239 16.3297 1.98816 15.8292 2.29972C15.332 2.61127 14.936 3.07031 14.641 3.67685C14.3493 4.28338 14.2035 5.02746 14.2035 5.90909C14.2035 6.79072 14.3493 7.5348 14.641 8.14134C14.936 8.74787 15.332 9.20691 15.8292 9.51847C16.3297 9.83002 16.8881 9.9858 17.5046 9.9858C18.1211 9.9858 18.6779 9.83002 19.1751 9.51847C19.6756 9.20691 20.0716 8.74787 20.3633 8.14134C20.6583 7.5348 20.8058 6.79072 20.8058 5.90909ZM28.5855 7.87784V3.36364H29.7588V11H28.5855V9.70739H28.506C28.327 10.0952 28.0486 10.425 27.6707 10.6967C27.2929 10.9652 26.8156 11.0994 26.2389 11.0994C25.7616 11.0994 25.3374 10.995 24.9662 10.7862C24.595 10.5741 24.3033 10.2559 24.0912 9.83168C23.8791 9.40412 23.773 8.86553 23.773 8.21591V3.36364H24.9463V8.13636C24.9463 8.69318 25.1021 9.13731 25.4136 9.46875C25.7285 9.80019 26.1295 9.96591 26.6168 9.96591C26.9084 9.96591 27.2051 9.89134 27.5067 9.74219C27.8116 9.59304 28.0668 9.36435 28.2723 9.05611C28.4811 8.74787 28.5855 8.35511 28.5855 7.87784ZM34.9695 11.1591C34.2337 11.1591 33.599 10.9967 33.0654 10.6719C32.5351 10.3438 32.1257 9.88636 31.8374 9.29972C31.5523 8.70975 31.4098 8.02367 31.4098 7.24148C31.4098 6.45928 31.5523 5.76989 31.8374 5.1733C32.1257 4.57339 32.5268 4.10606 33.0405 3.77131C33.5575 3.43324 34.1608 3.2642 34.8502 3.2642C35.2479 3.2642 35.6406 3.33049 36.0284 3.46307C36.4162 3.59564 36.7692 3.81108 37.0874 4.10938C37.4056 4.40436 37.6591 4.79545 37.848 5.28267C38.0369 5.76989 38.1314 6.36979 38.1314 7.08239V7.57955H32.245V6.56534H36.9382C36.9382 6.13447 36.8521 5.75 36.6797 5.41193C36.5107 5.07386 36.2687 4.80705 35.9539 4.61151C35.6423 4.41596 35.2744 4.31818 34.8502 4.31818C34.3828 4.31818 33.9785 4.43419 33.6371 4.66619C33.299 4.89489 33.0388 5.19318 32.8565 5.56108C32.6743 5.92898 32.5831 6.32339 32.5831 6.74432V7.42045C32.5831 7.99716 32.6825 8.48603 32.8814 8.88707C33.0836 9.2848 33.3637 9.58807 33.7216 9.79688C34.0796 10.0024 34.4955 10.1051 34.9695 10.1051C35.2777 10.1051 35.5561 10.062 35.8047 9.97585C36.0566 9.88636 36.2737 9.75379 36.456 9.57812C36.6383 9.39915 36.7791 9.17708 36.8786 8.91193L38.0121 9.23011C37.8928 9.61458 37.6922 9.95265 37.4105 10.2443C37.1288 10.5327 36.7808 10.758 36.3665 10.9205C35.9522 11.0795 35.4865 11.1591 34.9695 11.1591ZM45.1853 5.07386L44.1313 5.37216C44.065 5.1965 43.9673 5.0258 43.838 4.86009C43.712 4.69105 43.5397 4.55185 43.321 4.44247C43.1022 4.3331 42.8221 4.27841 42.4808 4.27841C42.0134 4.27841 41.624 4.38613 41.3124 4.60156C41.0042 4.81368 40.8501 5.08381 40.8501 5.41193C40.8501 5.7036 40.9561 5.93395 41.1683 6.10298C41.3804 6.27202 41.7118 6.41288 42.1626 6.52557L43.2961 6.80398C43.9789 6.9697 44.4876 7.22325 44.8224 7.56463C45.1571 7.9027 45.3245 8.33854 45.3245 8.87216C45.3245 9.30966 45.1986 9.70076 44.9467 10.0455C44.6981 10.3902 44.3501 10.6619 43.9026 10.8608C43.4552 11.0597 42.9348 11.1591 42.3415 11.1591C41.5627 11.1591 40.918 10.9901 40.4076 10.652C39.8972 10.3139 39.574 9.82008 39.4381 9.17045L40.5518 8.89205C40.6578 9.30303 40.8584 9.61127 41.1533 9.81676C41.4516 10.0223 41.8411 10.125 42.3217 10.125C42.8685 10.125 43.3027 10.009 43.6242 9.77699C43.949 9.54167 44.1114 9.25994 44.1114 8.93182C44.1114 8.66667 44.0186 8.4446 43.833 8.26562C43.6474 8.08333 43.3624 7.94744 42.9779 7.85795L41.7052 7.55966C41.0058 7.39394 40.4921 7.13707 40.164 6.78906C39.8392 6.43774 39.6768 5.99858 39.6768 5.47159C39.6768 5.04072 39.7978 4.65956 40.0397 4.32812C40.285 3.99669 40.6181 3.73651 41.039 3.54758C41.4632 3.35866 41.9438 3.2642 42.4808 3.2642C43.2364 3.2642 43.8297 3.42992 44.2606 3.76136C44.6948 4.0928 45.003 4.5303 45.1853 5.07386ZM50.2717 3.36364V4.35795H46.3143V3.36364H50.2717ZM47.4677 1.53409H48.641V8.8125C48.641 9.14394 48.6891 9.39252 48.7852 9.55824C48.8846 9.72064 49.0106 9.83002 49.163 9.88636C49.3188 9.93939 49.4829 9.96591 49.6552 9.96591C49.7845 9.96591 49.8905 9.95928 49.9734 9.94602C50.0562 9.92945 50.1225 9.91619 50.1723 9.90625L50.4109 10.9602C50.3313 10.9901 50.2203 11.0199 50.0778 11.0497C49.9353 11.0829 49.7546 11.0994 49.5359 11.0994C49.2044 11.0994 48.8796 11.0282 48.5615 10.8857C48.2466 10.7431 47.9848 10.526 47.7759 10.2344C47.5705 9.94271 47.4677 9.57481 47.4677 9.13068V1.53409ZM51.8966 11V3.36364H53.0699V11H51.8966ZM52.4932 2.09091C52.2645 2.09091 52.0673 2.01302 51.9016 1.85724C51.7392 1.70147 51.658 1.5142 51.658 1.29545C51.658 1.0767 51.7392 0.889441 51.9016 0.733664C52.0673 0.577888 52.2645 0.5 52.4932 0.5C52.7219 0.5 52.9174 0.577888 53.0798 0.733664C53.2456 0.889441 53.3284 1.0767 53.3284 1.29545C53.3284 1.5142 53.2456 1.70147 53.0798 1.85724C52.9174 2.01302 52.7219 2.09091 52.4932 2.09091ZM58.1811 11.1591C57.4917 11.1591 56.8869 10.995 56.3665 10.6669C55.8495 10.3388 55.4451 9.87973 55.1534 9.28977C54.8651 8.69981 54.7209 8.01042 54.7209 7.22159C54.7209 6.42614 54.8651 5.73177 55.1534 5.13849C55.4451 4.54522 55.8495 4.08452 56.3665 3.75639C56.8869 3.42827 57.4917 3.2642 58.1811 3.2642C58.8705 3.2642 59.4738 3.42827 59.9908 3.75639C60.5112 4.08452 60.9155 4.54522 61.2039 5.13849C61.4955 5.73177 61.6414 6.42614 61.6414 7.22159C61.6414 8.01042 61.4955 8.69981 61.2039 9.28977C60.9155 9.87973 60.5112 10.3388 59.9908 10.6669C59.4738 10.995 58.8705 11.1591 58.1811 11.1591ZM58.1811 10.1051C58.7048 10.1051 59.1357 9.97088 59.4738 9.70241C59.8118 9.43395 60.0621 9.08097 60.2245 8.64347C60.3869 8.20597 60.4681 7.73201 60.4681 7.22159C60.4681 6.71117 60.3869 6.23556 60.2245 5.79474C60.0621 5.35393 59.8118 4.99763 59.4738 4.72585C59.1357 4.45407 58.7048 4.31818 58.1811 4.31818C57.6575 4.31818 57.2266 4.45407 56.8885 4.72585C56.5505 4.99763 56.3002 5.35393 56.1378 5.79474C55.9754 6.23556 55.8942 6.71117 55.8942 7.22159C55.8942 7.73201 55.9754 8.20597 56.1378 8.64347C56.3002 9.08097 56.5505 9.43395 56.8885 9.70241C57.2266 9.97088 57.6575 10.1051 58.1811 10.1051ZM64.4657 6.40625V11H63.2924V3.36364H64.4259V4.55682H64.5253C64.7043 4.16903 64.9761 3.85748 65.3407 3.62216C65.7053 3.38352 66.1759 3.2642 66.7526 3.2642C67.2697 3.2642 67.7221 3.37027 68.1099 3.58239C68.4976 3.79119 68.7992 4.10938 69.0147 4.53693C69.2301 4.96117 69.3378 5.49811 69.3378 6.14773V11H68.1645V6.22727C68.1645 5.62737 68.0088 5.16004 67.6972 4.82528C67.3857 4.48722 66.9581 4.31818 66.4145 4.31818C66.04 4.31818 65.7053 4.39938 65.4103 4.56179C65.1186 4.72419 64.8883 4.96117 64.7192 5.27273C64.5502 5.58428 64.4657 5.96212 64.4657 6.40625ZM76.7509 5.07386L75.6969 5.37216C75.6307 5.1965 75.5329 5.0258 75.4036 4.86009C75.2777 4.69105 75.1053 4.55185 74.8866 4.44247C74.6678 4.3331 74.3878 4.27841 74.0464 4.27841C73.579 4.27841 73.1896 4.38613 72.8781 4.60156C72.5698 4.81368 72.4157 5.08381 72.4157 5.41193C72.4157 5.7036 72.5218 5.93395 72.7339 6.10298C72.946 6.27202 73.2774 6.41288 73.7282 6.52557L74.8617 6.80398C75.5445 6.9697 76.0532 7.22325 76.388 7.56463C76.7227 7.9027 76.8901 8.33854 76.8901 8.87216C76.8901 9.30966 76.7642 9.70076 76.5123 10.0455C76.2637 10.3902 75.9157 10.6619 75.4683 10.8608C75.0208 11.0597 74.5004 11.1591 73.9072 11.1591C73.1283 11.1591 72.4836 10.9901 71.9732 10.652C71.4628 10.3139 71.1397 9.82008 71.0038 9.17045L72.1174 8.89205C72.2235 9.30303 72.424 9.61127 72.719 9.81676C73.0173 10.0223 73.4067 10.125 73.8873 10.125C74.4342 10.125 74.8683 10.009 75.1898 9.77699C75.5147 9.54167 75.6771 9.25994 75.6771 8.93182C75.6771 8.66667 75.5843 8.4446 75.3986 8.26562C75.213 8.08333 74.928 7.94744 74.5435 7.85795L73.2708 7.55966C72.5715 7.39394 72.0577 7.13707 71.7296 6.78906C71.4048 6.43774 71.2424 5.99858 71.2424 5.47159C71.2424 5.04072 71.3634 4.65956 71.6053 4.32812C71.8506 3.99669 72.1837 3.73651 72.6046 3.54758C73.0289 3.35866 73.5094 3.2642 74.0464 3.2642C74.8021 3.2642 75.3953 3.42992 75.8262 3.76136C76.2604 4.0928 76.5686 4.5303 76.7509 5.07386Z" fill="white" fill-opacity="0.6" shape-rendering="crispEdges"/>
</g>
<defs>
<filter id="filter0_d_1_3224" x="0.267603" y="0.23125" width="77.4288" height="13.067" filterUnits="userSpaceOnUse" color-interpolation-filters="sRGB">
<feFlood flood-opacity="0" result="BackgroundImageFix"/>
<feColorMatrix in="SourceAlpha" type="matrix" values="0 0 0 0 0 0 0 0 0 0 0 0 0 0 0 0 0 0 127 0" result="hardAlpha"/>
<feOffset dy="0.5375"/>
<feGaussianBlur stdDeviation="0.403125"/>
<feComposite in2="hardAlpha" operator="out"/>
<feColorMatrix type="matrix" values="0 0 0 0 0 0 0 0 0 0 0 0 0 0 0 0 0 0 0.25 0"/>
<feBlend mode="normal" in2="BackgroundImageFix" result="effect1_dropShadow_1_3224"/>
<feBlend mode="normal" in="SourceGraphic" in2="effect1_dropShadow_1_3224" result="shape"/>
</filter>
</defs>
</svg>
