<svg width="381" height="116" viewBox="0 0 381 116" fill="none" xmlns="http://www.w3.org/2000/svg">
<mask id="path-1-outside-1_1_1646" maskUnits="userSpaceOnUse" x="-14" y="29" width="393" height="63" fill="black">
<rect fill="white" x="-14" y="29" width="393" height="63"/>
<path d="M-13.05 91V29.8H11.2175C15.3542 29.8 18.74 30.6358 21.375 32.3075C24.0383 33.9508 26.0075 36.0617 27.2825 38.64C28.5858 41.2183 29.2375 43.8817 29.2375 46.63C29.2375 50.0017 28.43 52.8633 26.815 55.215C25.2283 57.5667 23.0608 59.1533 20.3125 59.975V57.85C24.1658 58.7283 27.0842 60.5558 29.0675 63.3325C31.0792 66.1092 32.085 69.2683 32.085 72.81C32.085 76.4367 31.3908 79.61 30.0025 82.33C28.6142 85.05 26.5458 87.175 23.7975 88.705C21.0775 90.235 17.7058 91 13.6825 91H-13.05ZM-2.68 81.3525H12.4075C14.1925 81.3525 15.7933 80.9983 17.21 80.29C18.6267 79.5533 19.7317 78.5333 20.525 77.23C21.3467 75.8983 21.7575 74.3258 21.7575 72.5125C21.7575 70.8692 21.4033 69.3958 20.695 68.0925C19.9867 66.7892 18.9525 65.755 17.5925 64.99C16.2325 64.1967 14.6033 63.8 12.705 63.8H-2.68V81.3525ZM-2.68 54.2375H11.09C12.5633 54.2375 13.8808 53.9542 15.0425 53.3875C16.2042 52.8208 17.125 51.985 17.805 50.88C18.485 49.775 18.825 48.415 18.825 46.8C18.825 44.675 18.145 42.9042 16.785 41.4875C15.425 40.0708 13.5267 39.3625 11.09 39.3625H-2.68V54.2375ZM42.273 91V29.8H81.798V39.405H52.5155V54.4925H76.698V64.0975H52.5155V81.395H81.798V91H42.273ZM112.411 91V29.8H136.679C140.815 29.8 144.201 30.6358 146.836 32.3075C149.5 33.9508 151.469 36.0617 152.744 38.64C154.047 41.2183 154.699 43.8817 154.699 46.63C154.699 50.0017 153.891 52.8633 152.276 55.215C150.69 57.5667 148.522 59.1533 145.774 59.975V57.85C149.627 58.7283 152.545 60.5558 154.529 63.3325C156.54 66.1092 157.546 69.2683 157.546 72.81C157.546 76.4367 156.852 79.61 155.464 82.33C154.075 85.05 152.007 87.175 149.259 88.705C146.539 90.235 143.167 91 139.144 91H112.411ZM122.781 81.3525H137.869C139.654 81.3525 141.255 80.9983 142.671 80.29C144.088 79.5533 145.193 78.5333 145.986 77.23C146.808 75.8983 147.219 74.3258 147.219 72.5125C147.219 70.8692 146.865 69.3958 146.156 68.0925C145.448 66.7892 144.414 65.755 143.054 64.99C141.694 64.1967 140.065 63.8 138.166 63.8H122.781V81.3525ZM122.781 54.2375H136.551C138.025 54.2375 139.342 53.9542 140.504 53.3875C141.665 52.8208 142.586 51.985 143.266 50.88C143.946 49.775 144.286 48.415 144.286 46.8C144.286 44.675 143.606 42.9042 142.246 41.4875C140.886 40.0708 138.988 39.3625 136.551 39.3625H122.781V54.2375ZM167.734 91V29.8H207.259V39.405H177.977V54.4925H202.159V64.0975H177.977V81.395H207.259V91H167.734ZM233.861 91V39.405H214.056V29.8H263.909V39.405H244.104V91H233.861ZM292.172 91V39.405H272.367V29.8H322.22V39.405H302.415V91H292.172ZM324.805 91L344.1 29.8H359.103L378.398 91H367.858L350.348 36.09H352.643L335.345 91H324.805ZM335.558 77.74V68.1775H367.688V77.74H335.558Z"/>
</mask>
<path d="M-13.05 91H-13.3V91.25H-13.05V91ZM-13.05 29.8V29.55H-13.3V29.8H-13.05ZM21.375 32.3075L21.2411 32.5186L21.2437 32.5203L21.375 32.3075ZM27.2825 38.64L27.0584 38.7508L27.0594 38.7528L27.2825 38.64ZM26.815 55.215L26.6089 55.0735L26.6078 55.0752L26.815 55.215ZM20.3125 59.975H20.0625V60.3107L20.3841 60.2145L20.3125 59.975ZM20.3125 57.85L20.3681 57.6063L20.0625 57.5366V57.85H20.3125ZM29.0675 63.3325L28.8641 63.4778L28.8651 63.4792L29.0675 63.3325ZM30.0025 82.33L29.7798 82.2163L30.0025 82.33ZM23.7975 88.705L23.6759 88.4866L23.6749 88.4871L23.7975 88.705ZM-2.68 81.3525H-2.93V81.6025H-2.68V81.3525ZM17.21 80.29L17.3218 80.5136L17.3253 80.5118L17.21 80.29ZM20.525 77.23L20.3122 77.0987L20.3115 77.1L20.525 77.23ZM20.695 68.0925L20.4753 68.2119L20.695 68.0925ZM17.5925 64.99L17.4665 65.206L17.4699 65.2079L17.5925 64.99ZM-2.68 63.8V63.55H-2.93V63.8H-2.68ZM-2.68 54.2375H-2.93V54.4875H-2.68V54.2375ZM17.805 50.88L17.5921 50.749L17.805 50.88ZM16.785 41.4875L16.9654 41.3144V41.3144L16.785 41.4875ZM-2.68 39.3625V39.1125H-2.93V39.3625H-2.68ZM-12.8 91V29.8H-13.3V91H-12.8ZM-13.05 30.05H11.2175V29.55H-13.05V30.05ZM11.2175 30.05C15.3218 30.05 18.6572 30.8794 21.2411 32.5186L21.5089 32.0964C18.8228 30.3923 15.3865 29.55 11.2175 29.55V30.05ZM21.2437 32.5203C23.8708 34.1412 25.806 36.2182 27.0584 38.7508L27.5066 38.5292C26.209 35.9052 24.2059 33.7604 21.5063 32.0947L21.2437 32.5203ZM27.0594 38.7528C28.346 41.298 28.9875 43.9229 28.9875 46.63H29.4875C29.4875 43.8405 28.8257 41.1387 27.5056 38.5272L27.0594 38.7528ZM28.9875 46.63C28.9875 49.9605 28.1904 52.7706 26.6089 55.0735L27.0211 55.3565C28.6696 52.9561 29.4875 50.0428 29.4875 46.63H28.9875ZM26.6078 55.0752C25.0538 57.3783 22.9345 58.9302 20.2409 59.7355L20.3841 60.2145C23.1871 59.3765 25.4029 57.755 27.0222 55.3548L26.6078 55.0752ZM20.5625 59.975V57.85H20.0625V59.975H20.5625ZM20.2569 58.0937C24.0606 58.9608 26.9219 60.7587 28.8641 63.4778L29.2709 63.1872C27.2465 60.3529 24.271 58.4959 20.3681 57.6063L20.2569 58.0937ZM28.8651 63.4792C30.8447 66.2117 31.835 69.3192 31.835 72.81H32.335C32.335 69.2175 31.3136 66.0066 29.27 63.1858L28.8651 63.4792ZM31.835 72.81C31.835 76.4045 31.1471 79.5376 29.7798 82.2163L30.2252 82.4437C31.6345 79.6824 32.335 76.4688 32.335 72.81H31.835ZM29.7798 82.2163C28.4148 84.8908 26.3823 86.9799 23.6759 88.4866L23.9191 88.9234C26.7094 87.3701 28.8136 85.2092 30.2252 82.4437L29.7798 82.2163ZM23.6749 88.4871C21.0017 89.9908 17.675 90.75 13.6825 90.75V91.25C17.7367 91.25 21.1533 90.4792 23.9201 88.9229L23.6749 88.4871ZM13.6825 90.75H-13.05V91.25H13.6825V90.75ZM-2.68 81.6025H12.4075V81.1025H-2.68V81.6025ZM12.4075 81.6025C14.2263 81.6025 15.8662 81.2414 17.3218 80.5136L17.0982 80.0664C15.7204 80.7553 14.1587 81.1025 12.4075 81.1025V81.6025ZM17.3253 80.5118C18.7805 79.7551 19.9204 78.7042 20.7386 77.36L20.3115 77.1C19.543 78.3625 18.4728 79.3516 17.0947 80.0682L17.3253 80.5118ZM20.7378 77.3613C21.5874 75.9842 22.0075 74.3647 22.0075 72.5125H21.5075C21.5075 74.287 21.1059 75.8124 20.3122 77.0987L20.7378 77.3613ZM22.0075 72.5125C22.0075 70.8321 21.645 69.3169 20.9147 67.9731L20.4753 68.2119C21.1617 69.4747 21.5075 70.9063 21.5075 72.5125H22.0075ZM20.9147 67.9731C20.1827 66.6263 19.1138 65.5589 17.7151 64.7721L17.4699 65.2079C18.7912 65.9511 19.7907 66.952 20.4753 68.2119L20.9147 67.9731ZM17.7185 64.7741C16.3131 63.9542 14.6385 63.55 12.705 63.55V64.05C14.5682 64.05 16.1519 64.4391 17.4665 65.2059L17.7185 64.7741ZM12.705 63.55H-2.68V64.05H12.705V63.55ZM-2.93 63.8V81.3525H-2.43V63.8H-2.93ZM-2.68 54.4875H11.09V53.9875H-2.68V54.4875ZM11.09 54.4875C12.596 54.4875 13.9518 54.1977 15.1521 53.6122L14.9329 53.1628C13.8099 53.7106 12.5307 53.9875 11.09 53.9875V54.4875ZM15.1521 53.6122C16.3566 53.0246 17.3132 52.1562 18.0179 51.011L17.5921 50.749C16.9368 51.8137 16.0518 52.617 14.9329 53.1628L15.1521 53.6122ZM18.0179 51.011C18.7275 49.858 19.075 48.45 19.075 46.8H18.575C18.575 48.38 18.2425 49.692 17.5921 50.749L18.0179 51.011ZM19.075 46.8C19.075 44.6163 18.3739 42.7816 16.9654 41.3144L16.6047 41.6606C17.9161 43.0267 18.575 44.7337 18.575 46.8H19.075ZM16.9654 41.3144C15.5473 39.8373 13.5773 39.1125 11.09 39.1125V39.6125C13.4761 39.6125 15.3027 40.3044 16.6047 41.6606L16.9654 41.3144ZM11.09 39.1125H-2.68V39.6125H11.09V39.1125ZM-2.93 39.3625V54.2375H-2.43V39.3625H-2.93ZM42.273 91H42.023V91.25H42.273V91ZM42.273 29.8V29.55H42.023V29.8H42.273ZM81.798 29.8H82.048V29.55H81.798V29.8ZM81.798 39.405V39.655H82.048V39.405H81.798ZM52.5155 39.405V39.155H52.2655V39.405H52.5155ZM52.5155 54.4925H52.2655V54.7425H52.5155V54.4925ZM76.6981 54.4925H76.9481V54.2425H76.6981V54.4925ZM76.6981 64.0975V64.3475H76.9481V64.0975H76.6981ZM52.5155 64.0975V63.8475H52.2655V64.0975H52.5155ZM52.5155 81.395H52.2655V81.645H52.5155V81.395ZM81.798 81.395H82.048V81.145H81.798V81.395ZM81.798 91V91.25H82.048V91H81.798ZM42.523 91V29.8H42.023V91H42.523ZM42.273 30.05H81.798V29.55H42.273V30.05ZM81.548 29.8V39.405H82.048V29.8H81.548ZM81.798 39.155H52.5155V39.655H81.798V39.155ZM52.2655 39.405V54.4925H52.7655V39.405H52.2655ZM52.5155 54.7425H76.6981V54.2425H52.5155V54.7425ZM76.4481 54.4925V64.0975H76.9481V54.4925H76.4481ZM76.6981 63.8475H52.5155V64.3475H76.6981V63.8475ZM52.2655 64.0975V81.395H52.7655V64.0975H52.2655ZM52.5155 81.645H81.798V81.145H52.5155V81.645ZM81.548 81.395V91H82.048V81.395H81.548ZM81.798 90.75H42.273V91.25H81.798V90.75ZM112.411 91H112.161V91.25H112.411V91ZM112.411 29.8V29.55H112.161V29.8H112.411ZM146.836 32.3075L146.702 32.5186L146.705 32.5203L146.836 32.3075ZM152.744 38.64L152.52 38.7508L152.521 38.7528L152.744 38.64ZM152.276 55.215L152.07 55.0735L152.069 55.0752L152.276 55.215ZM145.774 59.975H145.524V60.3107L145.845 60.2145L145.774 59.975ZM145.774 57.85L145.829 57.6063L145.524 57.5366V57.85H145.774ZM154.529 63.3325L154.325 63.4778L154.326 63.4792L154.529 63.3325ZM155.464 82.33L155.241 82.2163L155.464 82.33ZM149.259 88.705L149.137 88.4866L149.136 88.4871L149.259 88.705ZM122.781 81.3525H122.531V81.6025H122.781V81.3525ZM142.671 80.29L142.783 80.5136L142.787 80.5118L142.671 80.29ZM145.986 77.23L145.774 77.0987L145.773 77.1L145.986 77.23ZM146.156 68.0925L145.937 68.2119L146.156 68.0925ZM143.054 64.99L142.928 65.206L142.931 65.2079L143.054 64.99ZM122.781 63.8V63.55H122.531V63.8H122.781ZM122.781 54.2375H122.531V54.4875H122.781V54.2375ZM143.266 50.88L143.053 50.749L143.266 50.88ZM142.246 41.4875L142.427 41.3144V41.3144L142.246 41.4875ZM122.781 39.3625V39.1125H122.531V39.3625H122.781ZM112.661 91V29.8H112.161V91H112.661ZM112.411 30.05H136.679V29.55H112.411V30.05ZM136.679 30.05C140.783 30.05 144.119 30.8794 146.702 32.5186L146.97 32.0964C144.284 30.3923 140.848 29.55 136.679 29.55V30.05ZM146.705 32.5203C149.332 34.1412 151.267 36.2182 152.52 38.7508L152.968 38.5292C151.67 35.9052 149.667 33.7604 146.968 32.0947L146.705 32.5203ZM152.521 38.7528C153.807 41.298 154.449 43.9229 154.449 46.63H154.949C154.949 43.8405 154.287 41.1387 152.967 38.5272L152.521 38.7528ZM154.449 46.63C154.449 49.9605 153.652 52.7706 152.07 55.0735L152.482 55.3565C154.131 52.9561 154.949 50.0428 154.949 46.63H154.449ZM152.069 55.0752C150.515 57.3783 148.396 58.9302 145.702 59.7355L145.845 60.2145C148.648 59.3765 150.864 57.755 152.484 55.3548L152.069 55.0752ZM146.024 59.975V57.85H145.524V59.975H146.024ZM145.718 58.0937C149.522 58.9608 152.383 60.7587 154.325 63.4778L154.732 63.1872C152.708 60.3529 149.732 58.4959 145.829 57.6063L145.718 58.0937ZM154.326 63.4792C156.306 66.2117 157.296 69.3192 157.296 72.81H157.796C157.796 69.2175 156.775 66.0066 154.731 63.1858L154.326 63.4792ZM157.296 72.81C157.296 76.4045 156.608 79.5376 155.241 82.2163L155.686 82.4437C157.096 79.6824 157.796 76.4688 157.796 72.81H157.296ZM155.241 82.2163C153.876 84.8908 151.844 86.9799 149.137 88.4866L149.38 88.9234C152.171 87.3701 154.275 85.2092 155.686 82.4437L155.241 82.2163ZM149.136 88.4871C146.463 89.9908 143.136 90.75 139.144 90.75V91.25C143.198 91.25 146.615 90.4792 149.381 88.9229L149.136 88.4871ZM139.144 90.75H112.411V91.25H139.144V90.75ZM122.781 81.6025H137.869V81.1025H122.781V81.6025ZM137.869 81.6025C139.688 81.6025 141.328 81.2414 142.783 80.5136L142.56 80.0664C141.182 80.7553 139.62 81.1025 137.869 81.1025V81.6025ZM142.787 80.5118C144.242 79.7551 145.382 78.7042 146.2 77.36L145.773 77.1C145.004 78.3625 143.934 79.3516 142.556 80.0682L142.787 80.5118ZM146.199 77.3613C147.049 75.9842 147.469 74.3647 147.469 72.5125H146.969C146.969 74.287 146.567 75.8124 145.774 77.0987L146.199 77.3613ZM147.469 72.5125C147.469 70.8321 147.106 69.3169 146.376 67.9731L145.937 68.2119C146.623 69.4747 146.969 70.9063 146.969 72.5125H147.469ZM146.376 67.9731C145.644 66.6263 144.575 65.5589 143.176 64.7721L142.931 65.2079C144.253 65.9511 145.252 66.952 145.937 68.2119L146.376 67.9731ZM143.18 64.7741C141.774 63.9542 140.1 63.55 138.166 63.55V64.05C140.03 64.05 141.613 64.4391 142.928 65.2059L143.18 64.7741ZM138.166 63.55H122.781V64.05H138.166V63.55ZM122.531 63.8V81.3525H123.031V63.8H122.531ZM122.781 54.4875H136.551V53.9875H122.781V54.4875ZM136.551 54.4875C138.057 54.4875 139.413 54.1977 140.613 53.6122L140.394 53.1628C139.271 53.7106 137.992 53.9875 136.551 53.9875V54.4875ZM140.613 53.6122C141.818 53.0246 142.774 52.1562 143.479 51.011L143.053 50.749C142.398 51.8137 141.513 52.617 140.394 53.1628L140.613 53.6122ZM143.479 51.011C144.189 49.858 144.536 48.45 144.536 46.8H144.036C144.036 48.38 143.704 49.692 143.053 50.749L143.479 51.011ZM144.536 46.8C144.536 44.6163 143.835 42.7816 142.427 41.3144L142.066 41.6606C143.377 43.0267 144.036 44.7337 144.036 46.8H144.536ZM142.427 41.3144C141.009 39.8373 139.039 39.1125 136.551 39.1125V39.6125C138.937 39.6125 140.764 40.3044 142.066 41.6606L142.427 41.3144ZM136.551 39.1125H122.781V39.6125H136.551V39.1125ZM122.531 39.3625V54.2375H123.031V39.3625H122.531ZM167.734 91H167.484V91.25H167.734V91ZM167.734 29.8V29.55H167.484V29.8H167.734ZM207.259 29.8H207.509V29.55H207.259V29.8ZM207.259 39.405V39.655H207.509V39.405H207.259ZM177.977 39.405V39.155H177.727V39.405H177.977ZM177.977 54.4925H177.727V54.7425H177.977V54.4925ZM202.159 54.4925H202.409V54.2425H202.159V54.4925ZM202.159 64.0975V64.3475H202.409V64.0975H202.159ZM177.977 64.0975V63.8475H177.727V64.0975H177.977ZM177.977 81.395H177.727V81.645H177.977V81.395ZM207.259 81.395H207.509V81.145H207.259V81.395ZM207.259 91V91.25H207.509V91H207.259ZM167.984 91V29.8H167.484V91H167.984ZM167.734 30.05H207.259V29.55H167.734V30.05ZM207.009 29.8V39.405H207.509V29.8H207.009ZM207.259 39.155H177.977V39.655H207.259V39.155ZM177.727 39.405V54.4925H178.227V39.405H177.727ZM177.977 54.7425H202.159V54.2425H177.977V54.7425ZM201.909 54.4925V64.0975H202.409V54.4925H201.909ZM202.159 63.8475H177.977V64.3475H202.159V63.8475ZM177.727 64.0975V81.395H178.227V64.0975H177.727ZM177.977 81.645H207.259V81.145H177.977V81.645ZM207.009 81.395V91H207.509V81.395H207.009ZM207.259 90.75H167.734V91.25H207.259V90.75ZM233.861 91H233.611V91.25H233.861V91ZM233.861 39.405H234.111V39.155H233.861V39.405ZM214.056 39.405H213.806V39.655H214.056V39.405ZM214.056 29.8V29.55H213.806V29.8H214.056ZM263.909 29.8H264.159V29.55H263.909V29.8ZM263.909 39.405V39.655H264.159V39.405H263.909ZM244.104 39.405V39.155H243.854V39.405H244.104ZM244.104 91V91.25H244.354V91H244.104ZM234.111 91V39.405H233.611V91H234.111ZM233.861 39.155H214.056V39.655H233.861V39.155ZM214.306 39.405V29.8H213.806V39.405H214.306ZM214.056 30.05H263.909V29.55H214.056V30.05ZM263.659 29.8V39.405H264.159V29.8H263.659ZM263.909 39.155H244.104V39.655H263.909V39.155ZM243.854 39.405V91H244.354V39.405H243.854ZM244.104 90.75H233.861V91.25H244.104V90.75ZM292.172 91H291.922V91.25H292.172V91ZM292.172 39.405H292.422V39.155H292.172V39.405ZM272.367 39.405H272.117V39.655H272.367V39.405ZM272.367 29.8V29.55H272.117V29.8H272.367ZM322.22 29.8H322.47V29.55H322.22V29.8ZM322.22 39.405V39.655H322.47V39.405H322.22ZM302.415 39.405V39.155H302.165V39.405H302.415ZM302.415 91V91.25H302.665V91H302.415ZM292.422 91V39.405H291.922V91H292.422ZM292.172 39.155H272.367V39.655H292.172V39.155ZM272.617 39.405V29.8H272.117V39.405H272.617ZM272.367 30.05H322.22V29.55H272.367V30.05ZM321.97 29.8V39.405H322.47V29.8H321.97ZM322.22 39.155H302.415V39.655H322.22V39.155ZM302.165 39.405V91H302.665V39.405H302.165ZM302.415 90.75H292.172V91.25H302.415V90.75ZM324.805 91L324.567 90.9248L324.464 91.25H324.805V91ZM344.1 29.8V29.55H343.917L343.862 29.7248L344.1 29.8ZM359.103 29.8L359.341 29.7248L359.286 29.55H359.103V29.8ZM378.398 91V91.25H378.739L378.636 90.9248L378.398 91ZM367.858 91L367.619 91.076L367.675 91.25H367.858V91ZM350.348 36.09V35.84H350.005L350.109 36.166L350.348 36.09ZM352.643 36.09L352.881 36.1651L352.983 35.84H352.643V36.09ZM335.345 91V91.25H335.528L335.584 91.0751L335.345 91ZM335.558 77.74H335.308V77.99H335.558V77.74ZM335.558 68.1775V67.9275H335.308V68.1775H335.558ZM367.688 68.1775H367.938V67.9275H367.688V68.1775ZM367.688 77.74V77.99H367.938V77.74H367.688ZM325.044 91.0752L344.339 29.8752L343.862 29.7248L324.567 90.9248L325.044 91.0752ZM344.1 30.05H359.103V29.55H344.1V30.05ZM358.864 29.8752L378.159 91.0752L378.636 90.9248L359.341 29.7248L358.864 29.8752ZM378.398 90.75H367.858V91.25H378.398V90.75ZM368.096 90.924L350.586 36.014L350.109 36.166L367.619 91.076L368.096 90.924ZM350.348 36.34H352.643V35.84H350.348V36.34ZM352.404 36.0149L335.107 90.9249L335.584 91.0751L352.881 36.1651L352.404 36.0149ZM335.345 90.75H324.805V91.25H335.345V90.75ZM335.808 77.74V68.1775H335.308V77.74H335.808ZM335.558 68.4275H367.688V67.9275H335.558V68.4275ZM367.438 68.1775V77.74H367.938V68.1775H367.438ZM367.688 77.49H335.558V77.99H367.688V77.49Z" fill="url(#paint0_linear_1_1646)" fill-opacity="0.8" mask="url(#path-1-outside-1_1_1646)"/>
<defs>
<linearGradient id="paint0_linear_1_1646" x1="181" y1="0" x2="181" y2="116" gradientUnits="userSpaceOnUse">
<stop stop-color="white"/>
<stop offset="1" stop-color="white" stop-opacity="0"/>
</linearGradient>
</defs>
</svg>
